<svg width="64" height="64" viewBox="0 0 64 64" fill="none" xmlns="http://www.w3.org/2000/svg">
<path d="M31.9999 18.6667V8H5.33325V56H58.6666V18.6667H31.9999ZM15.9999 50.6667H10.6666V45.3333H15.9999V50.6667ZM15.9999 40H10.6666V34.6667H15.9999V40ZM15.9999 29.3333H10.6666V24H15.9999V29.3333ZM15.9999 18.6667H10.6666V13.3333H15.9999V18.6667ZM26.6666 50.6667H21.3333V45.3333H26.6666V50.6667ZM26.6666 40H21.3333V34.6667H26.6666V40ZM26.6666 29.3333H21.3333V24H26.6666V29.3333ZM26.6666 18.6667H21.3333V13.3333H26.6666V18.6667ZM53.3333 50.6667H31.9999V45.3333H37.3333V40H31.9999V34.6667H37.3333V29.3333H31.9999V24H53.3333V50.6667ZM47.9999 29.3333H42.6666V34.6667H47.9999V29.3333ZM47.9999 40H42.6666V45.3333H47.9999V40Z" fill="#002FA8"/>
</svg>
