<svg width="238" height="420" viewBox="0 0 238 420" fill="none" xmlns="http://www.w3.org/2000/svg">
<g clip-path="url(#clip0_258:4926)">
<rect width="238" height="420" fill="white"/>
<path d="M109.028 127.632L118.903 120.888C119.369 120.57 119.919 120.4 120.482 120.4H215.471C216.063 120.4 216.64 120.588 217.119 120.937L226.316 127.632L236.817 135.06C237.559 135.585 238 136.437 238 137.346V403.141C238 404.001 237.604 404.814 236.927 405.345L230.344 410.504L218.785 419.418C218.295 419.796 217.694 420 217.075 420H118.933C118.309 420 117.703 419.792 117.212 419.409L106.312 410.915L99.09 405.345C98.4026 404.814 98 403.995 98 403.127V137.298C98 136.416 98.4153 135.586 99.1208 135.057L109.028 127.632Z" fill="white"/>
<path fill-rule="evenodd" clip-rule="evenodd" d="M224.668 129.896L215.471 123.2H120.482L110.657 129.91L100.8 137.298V403.127L108.034 408.706L118.933 417.2H217.075L228.616 408.301L228.634 408.287L235.2 403.141V137.346L224.668 129.896ZM230.344 410.504L218.785 419.418C218.295 419.796 217.694 420 217.075 420H118.933C118.309 420 117.703 419.792 117.212 419.409L106.312 410.915L99.09 405.345C98.4026 404.814 98 403.995 98 403.127V137.298C98 136.416 98.4153 135.586 99.1208 135.057L109.028 127.632L118.903 120.888C119.369 120.57 119.919 120.4 120.482 120.4H215.471C216.063 120.4 216.64 120.588 217.119 120.937L226.316 127.632L236.817 135.06C237.559 135.585 238 136.437 238 137.346V403.141C238 404.001 237.604 404.814 236.927 405.345L230.344 410.504Z" fill="#002FA8"/>
<path d="M114.292 182.078L121.051 176.967C121.537 176.599 122.13 176.4 122.739 176.4H213.199C213.846 176.4 214.473 176.624 214.974 177.034L221.13 182.078L228.503 187.725C229.194 188.255 229.6 189.077 229.6 189.948V398.133C229.6 398.958 229.235 399.742 228.604 400.274L222.862 405.112L214.946 411.042C214.462 411.404 213.873 411.6 213.268 411.6H122.784C122.147 411.6 121.529 411.383 121.032 410.984L113.715 405.112L107.483 400.276C106.8 399.745 106.4 398.929 106.4 398.064V189.889C106.4 189.051 106.775 188.258 107.422 187.726L114.292 182.078Z" fill="white"/>
<path fill-rule="evenodd" clip-rule="evenodd" d="M219.391 184.273L213.199 179.2L122.739 179.2L116.027 184.277L109.2 189.889L109.2 398.064L115.45 402.914L122.784 408.8H213.268L221.119 402.919L226.8 398.133V189.948L219.391 184.273ZM222.862 405.112L214.946 411.042C214.462 411.404 213.873 411.6 213.268 411.6H122.784C122.147 411.6 121.529 411.383 121.032 410.984L113.715 405.112L107.483 400.276C106.8 399.745 106.4 398.929 106.4 398.064V189.889C106.4 189.051 106.775 188.258 107.422 187.726L114.292 182.078L121.051 176.967C121.537 176.599 122.13 176.4 122.739 176.4H213.199C213.846 176.4 214.473 176.624 214.974 177.034L221.13 182.078L228.503 187.725C229.194 188.255 229.6 189.077 229.6 189.948V398.133C229.6 398.958 229.235 399.742 228.604 400.274L222.862 405.112Z" fill="#002FA8"/>
<path d="M128.8 145.6C128.8 142.507 131.307 140 134.4 140H201.6C204.693 140 207.2 142.507 207.2 145.6V162.4C207.2 165.493 204.693 168 201.6 168H134.4C131.307 168 128.8 165.493 128.8 162.4V145.6Z" fill="white"/>
<path fill-rule="evenodd" clip-rule="evenodd" d="M201.6 142.8H134.4C132.854 142.8 131.6 144.054 131.6 145.6V162.4C131.6 163.946 132.854 165.2 134.4 165.2H201.6C203.146 165.2 204.4 163.946 204.4 162.4V145.6C204.4 144.054 203.146 142.8 201.6 142.8ZM134.4 140C131.307 140 128.8 142.507 128.8 145.6V162.4C128.8 165.493 131.307 168 134.4 168H201.6C204.693 168 207.2 165.493 207.2 162.4V145.6C207.2 142.507 204.693 140 201.6 140H134.4Z" fill="#002FA8"/>
<path d="M175.602 156.415L175.542 156.353L173.972 154.807L173.147 154.004L173.972 153.192L175.539 151.646L175.581 151.604C176.238 150.942 176.603 150.051 176.596 149.124C176.6 148.195 176.231 147.303 175.57 146.642L175.551 146.623C174.884 145.967 173.98 145.599 173.037 145.6C172.175 145.599 171.343 145.907 170.694 146.467C170.57 146.573 170.454 146.688 170.346 146.81L168.933 148.204L168.108 149.018L166.737 150.371L166.31 150.792L164.862 152.221L163.071 154.004L164.881 155.792L166.294 157.183L166.746 157.63L168.11 158.978L168.936 159.79L170.512 161.345C170.843 161.68 171.239 161.945 171.676 162.126C172.113 162.307 172.582 162.4 173.056 162.399C173.949 162.402 174.811 162.074 175.469 161.479L175.684 161.267C176.286 160.617 176.619 159.767 176.617 158.886C176.618 157.967 176.253 157.084 175.602 156.426" fill="#002FA8"/>
<path d="M166.707 159.225L162.804 155.373L162.239 154.814L161.407 154.007L162.232 153.195L162.794 152.64L166.262 149.219L166.716 148.759L167.278 148.207L165.721 146.67L165.66 146.61C164.994 145.968 164.099 145.608 163.167 145.609C162.224 145.608 161.32 145.976 160.651 146.633L160.638 146.647C159.972 147.306 159.598 148.199 159.6 149.129C159.6 149.157 159.6 149.182 159.6 149.21V159.156C159.6 159.181 159.6 159.204 159.6 159.227C159.679 159.987 160.006 160.701 160.533 161.261L160.747 161.472C161.406 162.067 162.267 162.396 163.16 162.393C164.097 162.393 164.995 162.03 165.663 161.383L165.704 161.339L167.283 159.784L166.707 159.225Z" fill="#002FA8"/>
<path d="M135.668 128.688L138.838 126.793C139.706 126.274 140.699 126 141.711 126H194.223C195.277 126 196.309 126.297 197.201 126.857L200.118 128.688L202.019 129.981C203.508 130.994 204.4 132.678 204.4 134.48C204.4 135.982 203.182 137.2 201.68 137.2H134.361C132.836 137.2 131.6 135.964 131.6 134.439C131.6 132.657 132.46 130.985 133.908 129.948L135.668 128.688Z" fill="white"/>
<path fill-rule="evenodd" clip-rule="evenodd" d="M201.599 134.4C201.573 133.556 201.145 132.773 200.444 132.296L198.586 131.032L195.712 129.228C195.266 128.949 194.75 128.8 194.223 128.8H141.711C141.205 128.8 140.709 128.937 140.274 129.197L137.204 131.032L135.538 132.225C134.834 132.728 134.413 133.536 134.4 134.4H201.599ZM135.668 128.688L138.838 126.793C139.706 126.274 140.699 126 141.711 126H194.223C195.277 126 196.309 126.297 197.201 126.857L200.118 128.688L202.019 129.981C203.508 130.994 204.4 132.678 204.4 134.48C204.4 135.982 203.182 137.2 201.68 137.2H134.361C132.836 137.2 131.6 135.964 131.6 134.439C131.6 132.657 132.46 130.985 133.908 129.948L135.668 128.688Z" fill="#002FA8"/>
<path d="M0 14C0 6.26802 6.26801 0 14 0L154 0C161.732 0 168 6.26801 168 14V70C168 77.732 161.732 84 154 84H14C6.26801 84 0 77.732 0 70L0 14Z" fill="white"/>
<path fill-rule="evenodd" clip-rule="evenodd" d="M154 2.8L14 2.8C7.81441 2.8 2.8 7.81441 2.8 14L2.8 70C2.8 76.1856 7.81441 81.2 14 81.2H154C160.186 81.2 165.2 76.1856 165.2 70V14C165.2 7.81441 160.186 2.8 154 2.8ZM14 0C6.26801 0 0 6.26802 0 14L0 70C0 77.732 6.26801 84 14 84H154C161.732 84 168 77.732 168 70V14C168 6.26801 161.732 0 154 0L14 0Z" fill="#002FA8"/>
<path d="M96.5776 44.4154L96.5176 44.3532L94.9643 42.8072L94.1472 42.0042L94.9643 41.192L96.5153 39.6459L96.5568 39.6045C97.2073 38.9426 97.5683 38.0509 97.5608 37.1243C97.5651 36.1955 97.1999 35.3029 96.5453 34.6418L96.5268 34.6234C95.8661 33.9673 94.9714 33.5991 94.0387 33.5996C93.1857 33.5992 92.3614 33.9074 91.7191 34.467C91.5966 34.5731 91.4817 34.6876 91.3752 34.8098L89.9765 36.204L89.1595 37.0185L87.8023 38.3713L87.38 38.7924L85.9467 40.2211L84.1741 42.0042L85.9651 43.7919L87.3638 45.1838L87.8116 45.6302L89.1618 46.9784L89.9788 47.7905L91.5391 49.3458C91.867 49.6802 92.2587 49.9456 92.6912 50.1266C93.1237 50.3076 93.5882 50.4004 94.0572 50.3996C94.9412 50.4027 95.7939 50.0742 96.446 49.4793L96.6584 49.2676C97.2548 48.6173 97.5843 47.7674 97.5816 46.8864C97.5826 45.9672 97.2221 45.0842 96.5776 44.4269" fill="#002FA8"/>
<path d="M87.7725 47.2212L83.9088 43.3698L83.3503 42.8107L82.5263 42.0032L83.3434 41.191L83.8996 40.6365L87.3317 37.2153L87.7817 36.7552L88.338 36.203L86.7962 34.6661L86.7362 34.6063C86.0768 33.9638 85.191 33.6045 84.2689 33.6055C83.3355 33.6043 82.4397 33.9726 81.7785 34.6293L81.7646 34.6431C81.1056 35.3021 80.7361 36.1951 80.7376 37.1256C80.7376 37.1532 80.7376 37.1785 80.7376 37.2061V47.1522C80.7376 47.1775 80.7376 47.2005 80.7376 47.2235C80.8155 47.9835 81.1395 48.6974 81.6608 49.2574L81.8731 49.469C82.5252 50.0639 83.378 50.3925 84.262 50.3893C85.1885 50.39 86.0781 50.0272 86.7385 49.3793L86.7801 49.3356L88.3426 47.7803L87.7725 47.2212Z" fill="#002FA8"/>
<path d="M21.1296 48.0273L17.8383 43.3384L16.3773 45.0824V48.0273H14V36.1992H16.3773V41.7854L20.8734 36.1992H23.7469L19.3962 41.5783L24.0516 48.0273H21.1296Z" fill="#002FA8"/>
<path d="M30.3642 46.4743C29.7893 45.9125 29.3358 45.2394 29.0317 44.4963C28.7277 43.7532 28.5795 42.9559 28.5963 42.1535C28.5807 41.3423 28.7309 40.5365 29.0376 39.785C29.3443 39.0335 29.8012 38.3521 30.3804 37.7821C30.9519 37.1989 31.6374 36.7389 32.3945 36.4306C33.1516 36.1223 33.9642 35.9723 34.7819 35.9898C35.5973 35.9712 36.4077 36.1208 37.1624 36.4292C37.917 36.7377 38.5996 37.1982 39.1672 37.7821C39.749 38.3441 40.2088 39.0192 40.518 39.7656C40.8273 40.5121 40.9795 41.3138 40.9652 42.1213C40.9807 42.9262 40.829 43.7256 40.5196 44.4692C40.2101 45.2128 39.7497 45.8845 39.1672 46.4421C38.594 47.0225 37.9074 47.4794 37.1499 47.7845C36.3924 48.0896 35.5801 48.2365 34.7634 48.2159C33.0139 48.2159 31.5321 47.6408 30.3642 46.472V46.4743ZM37.413 39.4133C37.0728 39.0616 36.6637 38.7832 36.2111 38.5956C35.7585 38.408 35.272 38.3152 34.7819 38.3228C34.2915 38.3146 33.8047 38.4069 33.3517 38.5941C32.8986 38.7813 32.4891 39.0594 32.1484 39.411C31.794 39.7655 31.5159 40.1882 31.331 40.6534C31.146 41.1186 31.0582 41.6165 31.0728 42.1167C31.0591 42.613 31.1458 43.1069 31.3278 43.569C31.5099 44.0311 31.7834 44.4519 32.1322 44.8063C32.4765 45.1568 32.8893 45.4333 33.345 45.6185C33.8008 45.8037 34.2898 45.8937 34.7819 45.883C35.2736 45.8943 35.7624 45.805 36.2181 45.6206C36.6739 45.4362 37.0868 45.1606 37.4315 44.8109C37.7863 44.4609 38.0639 44.0408 38.2463 43.5777C38.4288 43.1145 38.5121 42.6184 38.4909 42.1213C38.507 41.6209 38.4199 41.1226 38.2349 40.6572C38.0499 40.1918 37.7709 39.7692 37.4154 39.4156" fill="#002FA8"/>
<path d="M54.8501 48.0273L51.5565 43.3384L50.0954 45.0824V48.0273H47.7205V36.1992H50.0954V41.7854L54.5915 36.1992H57.4674L53.1144 41.5783L57.7721 48.0273H54.8501Z" fill="#002FA8"/>
<path d="M64.0938 46.4743C63.5196 45.9121 63.0668 45.2388 62.7631 44.4957C62.4595 43.7527 62.3115 42.9556 62.3282 42.1535C62.3134 41.3426 62.4637 40.5372 62.7699 39.7859C63.0762 39.0346 63.5321 38.3529 64.11 37.7821C64.6817 37.1992 65.3673 36.7395 66.1244 36.4312C66.8814 36.1229 67.6939 35.9727 68.5115 35.9898C69.3269 35.9712 70.1373 36.1208 70.892 36.4292C71.6467 36.7377 72.3292 37.1982 72.8968 37.7821C73.4786 38.3441 73.9384 39.0192 74.2477 39.7656C74.557 40.5121 74.7091 41.3138 74.6948 42.1213C74.7103 42.9262 74.5586 43.7256 74.2492 44.4692C73.9398 45.2128 73.4793 45.8845 72.8968 46.4421C72.322 47.0242 71.6332 47.4821 70.8732 47.7873C70.1131 48.0924 69.2982 48.2384 68.4792 48.2159C66.7273 48.2159 65.2479 47.6408 64.0777 46.472L64.0938 46.4743ZM71.1288 39.4133C70.7888 39.062 70.38 38.7839 69.9278 38.5963C69.4757 38.4087 68.9897 38.3156 68.4999 38.3228C68.0096 38.3143 67.5227 38.4065 67.0696 38.5937C66.6165 38.781 66.207 39.0592 65.8664 39.411C65.5107 39.7656 65.2314 40.1889 65.0456 40.655C64.8599 41.121 64.7716 41.62 64.7863 42.1213C64.7725 42.6175 64.8593 43.1115 65.0413 43.5736C65.2233 44.0357 65.4969 44.4565 65.8457 44.8108C66.1902 45.1608 66.6031 45.4365 67.0589 45.6209C67.5147 45.8054 68.0036 45.8946 68.4953 45.883C68.987 45.894 69.4757 45.8046 69.9314 45.6202C70.3871 45.4358 70.8001 45.1604 71.145 44.8108C71.4998 44.4609 71.7774 44.0408 71.9598 43.5777C72.1422 43.1145 72.2255 42.6184 72.2044 42.1213C72.2205 41.6209 72.1334 41.1226 71.9483 40.6572C71.7633 40.1918 71.4844 39.7692 71.1288 39.4156" fill="#002FA8"/>
<path d="M103.841 42.1301C103.841 38.8171 105.918 35.9688 109.886 35.9688C111.384 35.9688 112.572 36.4151 113.83 37.4964C113.944 37.6018 114.036 37.7286 114.1 37.8696C114.164 38.0105 114.2 38.1628 114.205 38.3176C114.209 38.4723 114.183 38.6265 114.128 38.7711C114.072 38.9157 113.988 39.0478 113.881 39.1599C113.661 39.3544 113.374 39.4576 113.079 39.4481C112.785 39.4387 112.505 39.3175 112.298 39.1093C111.592 38.3707 110.867 38.166 109.886 38.166C107.234 38.166 105.962 40.0365 105.962 42.1301C105.962 44.2606 107.218 46.2162 109.886 46.2162C110.884 46.1956 111.839 45.8042 112.563 45.1188C112.803 44.9429 113.101 44.866 113.396 44.9042C113.691 44.9423 113.96 45.0926 114.147 45.3235C114.424 45.7009 114.56 46.3359 113.957 46.9341C112.752 48.0499 111.305 48.2731 109.877 48.2731C105.718 48.2777 103.841 45.4547 103.841 42.1301Z" fill="#002FA8"/>
<path d="M118.359 37.309C118.364 37.0268 118.481 36.7583 118.684 36.5618C118.888 36.3653 119.16 36.2567 119.443 36.2598C119.717 36.2682 119.976 36.3826 120.165 36.5786C120.355 36.7746 120.46 37.0366 120.459 37.309V45.916H125.144C126.832 45.916 126.866 48.1638 125.144 48.1638H119.443C119.302 48.1698 119.162 48.147 119.029 48.097C118.897 48.0469 118.777 47.9706 118.676 47.8726C118.574 47.7747 118.494 47.6572 118.439 47.5273C118.385 47.3974 118.357 47.2578 118.359 47.117V37.309Z" fill="#002FA8"/>
<path d="M137.49 37.4098C137.49 35.8821 139.748 35.7625 139.748 37.4098V43.6218C139.748 50.0431 129.361 50.0431 129.361 43.6218V37.4098C129.361 35.866 131.619 35.7993 131.619 37.4098V43.6218C131.619 47.0039 137.49 47.2109 137.49 43.6218V37.4098Z" fill="#002FA8"/>
<path d="M144.657 48.1625C144.517 48.1661 144.377 48.1409 144.247 48.0886C144.117 48.0363 143.999 47.9579 143.9 47.8583C143.801 47.7586 143.724 47.6399 143.673 47.5094C143.623 47.3789 143.599 47.2395 143.605 47.0996V37.3491C143.597 37.2087 143.62 37.0683 143.67 36.937C143.72 36.8056 143.797 36.686 143.896 36.5859C143.995 36.4857 144.114 36.4071 144.245 36.3552C144.376 36.3032 144.516 36.2789 144.657 36.2838H149.504C151.761 36.2838 152.985 37.8115 152.985 39.5624C153 39.9708 152.922 40.3773 152.758 40.7518C152.594 41.1262 152.347 41.4589 152.036 41.7251C153.398 42.2588 154 43.3057 154 44.5757C154 46.5497 152.657 48.1625 150.076 48.1625H144.657ZM149.504 38.3775H145.862V40.9359H149.492C150.233 40.9359 150.7 40.4758 150.7 39.5555C150.693 39.2406 150.564 38.9406 150.338 38.7203C150.112 38.4999 149.808 38.3768 149.492 38.3775H149.504ZM145.871 46.0689H150.074C152.071 46.0689 152.071 43.0296 150.074 43.0296H145.862L145.871 46.0689Z" fill="#002FA8"/>
</g>
<defs>
<clipPath id="clip0_258:4926">
<rect width="238" height="420" fill="white"/>
</clipPath>
</defs>
</svg>
