<svg width="20" height="20" viewBox="0 0 20 20" fill="none" xmlns="http://www.w3.org/2000/svg">
<path d="M2.5627 11.25H17.4377C18.7752 11.25 19.4439 12.2617 18.5002 12.8516L11.0627 17.5C10.4752 17.8672 9.5252 17.8672 8.94395 17.5L1.5002 12.8516C0.556449 12.2617 1.2252 11.25 2.5627 11.25ZM18.5002 7.14844L11.0627 2.5C10.4752 2.13281 9.5252 2.13281 8.94395 2.5L1.5002 7.14844C0.556449 7.73828 1.2252 8.75 2.5627 8.75H17.4377C18.7752 8.75 19.4439 7.73828 18.5002 7.14844Z" fill="black"/>
<path d="M2.5627 11.25H17.4377C18.7752 11.25 19.4439 12.2617 18.5002 12.8516L11.0627 17.5C10.4752 17.8672 9.5252 17.8672 8.94395 17.5L1.5002 12.8516C0.556449 12.2617 1.2252 11.25 2.5627 11.25ZM18.5002 7.14844L11.0627 2.5C10.4752 2.13281 9.5252 2.13281 8.94395 2.5L1.5002 7.14844C0.556449 7.73828 1.2252 8.75 2.5627 8.75H17.4377C18.7752 8.75 19.4439 7.73828 18.5002 7.14844Z" fill="#231F20"/>
</svg>
