<svg width="296" height="128" viewBox="0 0 296 128" fill="none" xmlns="http://www.w3.org/2000/svg">
<path d="M28.5707 20.7101L27.9707 19.6801L43.1007 10.3301L44.1407 12.1201L28.5707 20.7101Z" fill="#407BFF"/>
<path d="M18.3702 26.6606L17.7702 25.6406L2.2002 34.2306L3.2402 36.0206L18.3702 26.6606Z" fill="#407BFF"/>
<path d="M20.7101 17.7792L19.6801 18.3692L10.3301 3.24921L12.1201 2.19922L20.7101 17.7792Z" fill="#407BFF"/>
<path d="M26.6606 27.9707L25.6406 28.5707L34.2206 44.1507L36.0106 43.1007L26.6606 27.9707Z" fill="#407BFF"/>
<path opacity="0.3" d="M25.2396 17.61L24.0996 17.31L28.1796 0L30.1896 0.529999L25.2396 17.61Z" fill="#407BFF"/>
<path d="M22.2402 29.0305L21.1002 28.7305L16.1602 45.8205L18.1602 46.3405L22.2402 29.0305Z" fill="#407BFF"/>
<path d="M17.61 21.1002L17.31 22.2502L0 18.1602L0.530006 16.1602L17.61 21.1002Z" fill="#407BFF"/>
<path opacity="0.3" d="M29.0305 24.0996L28.7305 25.2496L45.8205 30.1896L46.3405 28.1796L29.0305 24.0996Z" fill="#407BFF"/>
<path d="M26.5803 19.5105L25.7803 18.9005L34.5603 6.73047L35.9503 7.79047L26.5803 19.5105Z" fill="#407BFF"/>
<path opacity="0.3" d="M20.5606 27.4398L19.7606 26.8398L10.3906 38.5598L11.7806 39.6198L20.5606 27.4398Z" fill="#407BFF"/>
<path opacity="0.3" d="M19.5105 19.7606L18.9005 20.5606L6.73047 11.7906L7.79047 10.3906L19.5105 19.7606Z" fill="#407BFF"/>
<path opacity="0.3" d="M27.4398 25.7891L26.8398 26.5791L38.5598 35.9491L39.6098 34.5591L27.4398 25.7891Z" fill="#407BFF"/>
<path d="M22.9896 18.1698L21.9996 18.3098L19.5996 3.49976L21.3296 3.25977L22.9896 18.1698Z" fill="#407BFF"/>
<path opacity="0.3" d="M24.3396 28.0391L23.3496 28.1791L25.0096 43.0891L26.7496 42.8491L24.3396 28.0391Z" fill="#407BFF"/>
<path d="M18.1698 23.3496L18.2998 24.3396L3.48977 26.7496L3.25977 25.0196L18.1698 23.3496Z" fill="#407BFF"/>
<path d="M28.04 21.9996L28.17 22.9896L43.09 21.3296L42.85 19.5996L28.04 21.9996Z" fill="#407BFF"/>
<path d="M279.59 110.071L280.07 109.141L294.18 116.021L293.34 117.651L279.59 110.071Z" fill="#407BFF"/>
<path d="M270.34 105.27L270.82 104.34L257.08 96.7598L256.23 98.3898L270.34 105.27Z" fill="#407BFF"/>
<path d="M278.071 102.82L277.141 102.34L284.021 88.2305L285.651 89.0705L278.071 102.82Z" fill="#407BFF"/>
<path opacity="0.3" d="M273.27 112.07L272.34 111.59L264.76 125.34L266.39 126.18L273.27 112.07Z" fill="#407BFF"/>
<path opacity="0.3" d="M280.33 106.13L280.02 105.13L294.86 100.02L295.41 101.77L280.33 106.13Z" fill="#407BFF"/>
<path d="M270.4 109.281L270.08 108.281L255 112.641L255.55 114.391L270.4 109.281Z" fill="#407BFF"/>
<path opacity="0.3" d="M274.13 102.08L273.14 102.4L268.02 87.55L269.77 87L274.13 102.08Z" fill="#407BFF"/>
<path d="M277.279 112.02L276.279 112.33L280.639 127.41L282.389 126.86L277.279 112.02Z" fill="#407BFF"/>
<path d="M279.55 108.021L279.63 107.141L292.84 107.951L292.71 109.491L279.55 108.021Z" fill="#407BFF"/>
<path opacity="0.3" d="M270.79 107.27L270.87 106.39L257.7 104.92L257.57 106.46L270.79 107.27Z" fill="#407BFF"/>
<path d="M276.021 102.86L275.141 102.79L275.951 89.5703L277.491 89.7003L276.021 102.86Z" fill="#407BFF"/>
<path d="M275.27 111.621L274.39 111.551L272.92 124.711L274.46 124.841L275.27 111.621Z" fill="#407BFF"/>
<path d="M278.86 104.71L278.29 104.04L288.21 95.2598L289.2 96.4398L278.86 104.71Z" fill="#407BFF"/>
<path d="M272.13 110.369L271.56 109.699L261.21 117.969L262.21 119.149L272.13 110.369Z" fill="#407BFF"/>
<path d="M272.71 103.561L272.04 104.131L263.26 94.2109L264.45 93.2109L272.71 103.561Z" fill="#407BFF"/>
<path d="M278.379 110.289L277.699 110.849L285.969 121.199L287.149 120.199L278.379 110.289Z" fill="#407BFF"/>
</svg>
