<svg width="40" height="40" viewBox="0 0 40 40" fill="none" xmlns="http://www.w3.org/2000/svg">
<path d="M34.7623 24.7938L34.6433 24.6706L31.5613 21.6029L29.9401 20.0098L31.5613 18.3983L34.6387 15.3307L34.7211 15.2485C36.0117 13.9352 36.728 12.1659 36.7132 10.3275C36.7216 8.48458 35.9971 6.71344 34.6982 5.40191L34.6616 5.3654C33.3507 4.06344 31.5754 3.33288 29.7249 3.33399C28.0323 3.33313 26.3969 3.94465 25.1225 5.05497C24.8794 5.26547 24.6513 5.49276 24.4402 5.73516L21.665 8.50152L20.0439 10.1175L17.3511 12.8017L16.5131 13.6371L13.6692 16.4719L10.1522 20.0098L13.7059 23.5567L16.481 26.3185L17.3694 27.2041L20.0484 29.8792L21.6696 31.4906L24.7653 34.5765C25.4159 35.2399 26.1932 35.7666 27.0513 36.1257C27.9094 36.4848 28.8309 36.6689 29.7615 36.6673C31.5154 36.6735 33.2075 36.0216 34.5013 34.8413L34.9226 34.4213C36.1059 33.1311 36.7598 31.4447 36.7544 29.6966C36.7564 27.8728 36.0412 26.1209 34.7623 24.8167" fill="white"/>
<path d="M17.2916 30.3611L9.62556 22.7194L8.51732 21.6101L6.88244 20.0078L8.50358 18.3964L9.60724 17.2962L16.4169 10.5081L17.3099 9.59513L18.4136 8.49954L15.3545 5.45015L15.2354 5.33147C13.927 4.05665 12.1696 3.34376 10.34 3.34571C8.4879 3.34339 6.71066 4.07404 5.39869 5.37712L5.37121 5.40451C4.06356 6.71203 3.33051 8.4838 3.33334 10.3301C3.33334 10.3849 3.33334 10.4351 3.33334 10.4899V30.2242C3.33334 30.2744 3.33334 30.32 3.33334 30.3657C3.48789 31.8735 4.13093 33.2901 5.16513 34.4011L5.58645 34.8211C6.8803 36.0014 8.57233 36.6533 10.3262 36.647C12.1647 36.6484 13.9298 35.9285 15.24 34.643L15.3224 34.5563L18.4228 31.4704L17.2916 30.3611Z" fill="white"/>
</svg>
