<svg width="267" height="32" viewBox="0 0 267 32" fill="none" xmlns="http://www.w3.org/2000/svg">
<path d="M157.291 20.6014L157.177 20.4831L154.218 17.5382L152.662 16.0087L154.218 14.4618L157.172 11.5168L157.251 11.4379C158.49 10.1772 159.178 8.47861 159.164 6.71377C159.172 4.94458 158.476 3.24428 157.229 1.98521L157.194 1.95015C155.936 0.700273 154.232 -0.00105871 152.455 1.19962e-06C150.83 -0.000817384 149.26 0.586238 148.037 1.65214C147.803 1.85423 147.584 2.07243 147.382 2.30512L144.718 4.96083L143.161 6.51217L140.576 9.08901L139.772 9.89097L137.042 12.6124L133.665 16.0087L137.077 19.4138L139.741 22.0652L140.594 22.9153L143.166 25.4834L144.722 27.0304L147.694 29.9928C148.318 30.6296 149.065 31.1353 149.888 31.48C150.712 31.8248 151.597 32.0015 152.49 32C154.174 32.0059 155.798 31.3802 157.04 30.247L157.445 29.8438C158.581 28.6052 159.209 26.9863 159.203 25.3081C159.205 23.5573 158.519 21.8754 157.291 20.6234" fill="#002FA8"/>
<path d="M140.519 25.9465L133.16 18.6104L132.096 17.5455L130.526 16.0073L132.083 14.4603L133.142 13.4042L139.679 6.88764L140.537 6.01117L141.596 4.95941L138.66 2.03198L138.545 1.91805C137.289 0.694228 135.602 0.00984874 133.846 0.011724C132.068 0.00950284 130.361 0.710922 129.102 1.96188L129.076 1.98817C127.82 3.2434 127.116 4.94429 127.119 6.71672C127.119 6.76931 127.119 6.81752 127.119 6.87011V25.815C127.119 25.8632 127.119 25.9071 127.119 25.9509C127.268 27.3984 127.885 28.7583 128.878 29.8249L129.282 30.2281C130.524 31.3612 132.149 31.987 133.832 31.981C135.597 31.9823 137.292 31.2912 138.55 30.0571L138.629 29.9739L141.605 27.0114L140.519 25.9465Z" fill="#002FA8"/>
<path d="M13.5802 27.4769L7.31106 18.5457L4.5282 21.8675V27.4769H0V4.94727H4.5282V15.5876L13.0922 4.94727H18.5656L10.2786 15.1932L19.1459 27.4769H13.5802Z" fill="#002FA8"/>
<path d="M31.1699 24.5241C30.0747 23.4541 29.2109 22.1719 28.6318 20.7565C28.0526 19.341 27.7703 17.8224 27.8023 16.2941C27.7727 14.749 28.0587 13.2141 28.6429 11.7826C29.2272 10.3512 30.0974 9.05321 31.2007 7.96759C32.2892 6.85674 33.595 5.98056 35.0371 5.39333C36.4792 4.8061 38.027 4.52033 39.5844 4.55373C41.1376 4.51826 42.6813 4.8032 44.1187 5.39068C45.5562 5.97816 46.8563 6.85548 47.9374 7.96759C49.0456 9.03805 49.9214 10.324 50.5105 11.7458C51.0996 13.1675 51.3895 14.6947 51.3621 16.2327C51.3918 17.7658 51.1028 19.2885 50.5134 20.7048C49.924 22.1212 49.047 23.4007 47.9374 24.4628C46.8457 25.5683 45.5379 26.4385 44.095 27.0197C42.6522 27.6009 41.105 27.8806 39.5493 27.8416C36.2169 27.8416 33.3944 26.746 31.1699 24.5197V24.5241ZM44.5962 11.0747C43.9482 10.4046 43.1689 9.87451 42.3068 9.51718C41.4446 9.15985 40.518 8.98294 39.5844 8.99744C38.6504 8.98178 37.7232 9.1577 36.8603 9.51428C35.9973 9.87087 35.2172 10.4005 34.5682 11.0703C33.8933 11.7454 33.3635 12.5506 33.0113 13.4367C32.659 14.3228 32.4917 15.2712 32.5196 16.2239C32.4934 17.1692 32.6586 18.11 33.0053 18.9902C33.352 19.8704 33.8731 20.6719 34.5375 21.3469C35.1933 22.0147 35.9795 22.5412 36.8476 22.894C37.7157 23.2467 38.6472 23.4182 39.5844 23.3979C40.521 23.4194 41.4521 23.2493 42.3202 22.898C43.1882 22.5468 43.9748 22.0218 44.6314 21.3557C45.3073 20.6891 45.8359 19.889 46.1834 19.0067C46.5309 18.1245 46.6896 17.1796 46.6493 16.2327C46.68 15.2796 46.514 14.3304 46.1616 13.4439C45.8092 12.5574 45.2779 11.7525 44.6006 11.0791" fill="#002FA8"/>
<path d="M77.8102 27.4769L71.5367 18.5457L68.7538 21.8675V27.4769H64.23V4.94727H68.7538V15.5876L77.3178 4.94727H82.7956L74.5042 15.1932L83.3759 27.4769H77.8102Z" fill="#002FA8"/>
<path d="M95.4175 24.5241C94.3238 23.4533 93.4612 22.1708 92.8829 20.7555C92.3045 19.3402 92.0226 17.822 92.0544 16.2941C92.0262 14.7496 92.3125 13.2154 92.8958 11.7843C93.4792 10.3532 94.3475 9.05481 95.4483 7.96759C96.5373 6.85738 97.8432 5.98161 99.2852 5.39443C100.727 4.80724 102.275 4.52111 103.832 4.55373C105.385 4.51826 106.929 4.8032 108.366 5.39068C109.804 5.97816 111.104 6.85548 112.185 7.96759C113.293 9.03805 114.169 10.324 114.758 11.7458C115.347 13.1675 115.637 14.6947 115.61 16.2327C115.639 17.7658 115.35 19.2885 114.761 20.7048C114.172 22.1212 113.295 23.4007 112.185 24.4628C111.09 25.5715 109.778 26.4437 108.331 27.025C106.883 27.6063 105.331 27.8843 103.771 27.8416C100.434 27.8416 97.6157 26.746 95.3868 24.5197L95.4175 24.5241ZM108.817 11.0747C108.17 10.4054 107.391 9.87572 106.53 9.51842C105.669 9.16113 104.743 8.98381 103.81 8.99744C102.876 8.98125 101.949 9.15694 101.086 9.51356C100.223 9.87017 99.4425 10.4001 98.7939 11.0703C98.1163 11.7457 97.5843 12.552 97.2305 13.4397C96.8767 14.3275 96.7085 15.2779 96.7364 16.2327C96.7103 17.178 96.8755 18.1188 97.2222 18.999C97.5689 19.8792 98.09 20.6807 98.7543 21.3557C99.4106 22.0223 100.197 22.5475 101.065 22.8987C101.933 23.25 102.865 23.4199 103.801 23.3979C104.738 23.4189 105.669 23.2485 106.537 22.8973C107.405 22.5461 108.191 22.0214 108.848 21.3557C109.524 20.6891 110.053 19.889 110.4 19.0067C110.748 18.1245 110.906 17.1796 110.866 16.2327C110.897 15.2796 110.731 14.3304 110.378 13.4439C110.026 12.5574 109.495 11.7525 108.817 11.0791" fill="#002FA8"/>
<path d="M171.126 16.2477C171.126 9.93708 175.083 4.51172 182.64 4.51172C185.493 4.51172 187.757 5.3619 190.153 7.42161C190.37 7.62223 190.545 7.86381 190.667 8.13231C190.79 8.40081 190.857 8.69088 190.866 8.98566C190.875 9.28045 190.826 9.57409 190.72 9.84951C190.614 10.1249 190.454 10.3767 190.25 10.59C189.83 10.9606 189.284 11.1571 188.723 11.1391C188.162 11.1212 187.63 10.8903 187.234 10.4936C185.889 9.0869 184.509 8.69688 182.64 8.69688C177.589 8.69688 175.166 12.2597 175.166 16.2477C175.166 20.3057 177.558 24.0307 182.64 24.0307C184.542 23.9914 186.36 23.246 187.74 21.9403C188.196 21.6053 188.764 21.4589 189.326 21.5316C189.888 21.6042 190.4 21.8904 190.756 22.3304C191.283 23.0491 191.543 24.2586 190.395 25.398C188.1 27.5235 185.344 27.9486 182.623 27.9486C174.7 27.9573 171.126 22.5802 171.126 16.2477Z" fill="#002FA8"/>
<path d="M198.779 7.06488C198.789 6.52747 199.012 6.01593 199.399 5.64165C199.786 5.26736 200.306 5.06065 200.845 5.06653C201.365 5.08252 201.859 5.30037 202.22 5.67366C202.581 6.04695 202.782 6.54616 202.78 7.06488V23.4593H211.704C214.918 23.4593 214.984 27.7408 211.704 27.7408H200.845C200.576 27.7522 200.308 27.7088 200.057 27.6135C199.805 27.5181 199.576 27.3727 199.382 27.1862C199.189 26.9996 199.036 26.7758 198.932 26.5284C198.828 26.281 198.776 26.015 198.779 25.7469V7.06488Z" fill="#002FA8"/>
<path d="M235.22 7.24719C235.22 4.3373 239.52 4.10942 239.52 7.24719V19.0795C239.52 31.3107 219.736 31.3107 219.736 19.0795V7.24719C219.736 4.30663 224.036 4.17954 224.036 7.24719V19.0795C224.036 25.5216 235.22 25.916 235.22 19.0795V7.24719Z" fill="#002FA8"/>
<path d="M248.87 27.7289C248.603 27.7357 248.337 27.6877 248.089 27.588C247.841 27.4883 247.616 27.339 247.428 27.1493C247.24 26.9595 247.093 26.7334 246.997 26.4849C246.9 26.2363 246.855 25.9706 246.866 25.7042V7.1318C246.852 6.86438 246.894 6.59707 246.99 6.34682C247.086 6.09657 247.232 5.86884 247.421 5.67807C247.609 5.4873 247.835 5.33765 248.085 5.23862C248.334 5.13958 248.602 5.09332 248.87 5.10277H258.103C262.402 5.10277 264.732 8.01266 264.732 11.3476C264.761 12.1255 264.614 12.8999 264.301 13.6131C263.988 14.3264 263.518 14.9601 262.925 15.467C265.519 16.4837 266.667 18.4777 266.667 20.8968C266.667 24.6568 264.108 27.7289 259.193 27.7289H248.87ZM258.103 9.09072H251.165V13.9639H258.081C259.492 13.9639 260.38 13.0874 260.38 11.3345C260.368 10.7346 260.121 10.1633 259.691 9.74363C259.261 9.32394 258.683 9.08946 258.081 9.09072H258.103ZM251.183 23.7409H259.189C262.991 23.7409 262.991 17.9518 259.189 17.9518H251.165L251.183 23.7409Z" fill="#002FA8"/>
</svg>
