<svg width="88" height="57" viewBox="0 0 88 57" fill="none" xmlns="http://www.w3.org/2000/svg">
<g filter="url(#filter0_dd_238:4454)">
<path d="M5 19.5508L83 19.5508V43.9887H5L5 19.5508Z" fill="white"/>
<path d="M14.077 28.3275C14.2798 28.3275 14.4559 28.3608 14.6052 28.4274C14.7567 28.4941 14.8726 28.5896 14.9528 28.714C15.0331 28.8384 15.0732 28.9862 15.0732 29.1572C15.0732 29.3261 15.0331 29.4738 14.9528 29.6005C14.8726 29.7249 14.7567 29.8204 14.6052 29.887C14.4559 29.9537 14.2798 29.987 14.077 29.987H13.5488V30.6602H13.1143V28.3275H14.077ZM14.0569 29.6205C14.2464 29.6205 14.3901 29.5805 14.4882 29.5005C14.5862 29.4205 14.6353 29.3061 14.6353 29.1572C14.6353 29.0084 14.5862 28.894 14.4882 28.814C14.3901 28.734 14.2464 28.694 14.0569 28.694H13.5488V29.6205H14.0569Z" fill="#002FA8"/>
<path d="M15.9154 29.1406C16.0357 28.954 16.2474 28.8607 16.5505 28.8607V29.2572C16.5148 29.2505 16.4825 29.2472 16.4536 29.2472C16.2909 29.2472 16.1638 29.295 16.0725 29.3905C15.9811 29.4838 15.9354 29.6193 15.9354 29.7971V30.6602H15.5176V28.8806H15.9154V29.1406Z" fill="#002FA8"/>
<path d="M17.7578 30.6835C17.5773 30.6835 17.4146 30.6446 17.2697 30.5669C17.1249 30.4891 17.0112 30.3814 16.9288 30.2436C16.8485 30.1037 16.8084 29.9459 16.8084 29.7704C16.8084 29.5949 16.8485 29.4383 16.9288 29.3005C17.0112 29.1628 17.1249 29.055 17.2697 28.9773C17.4146 28.8995 17.5773 28.8607 17.7578 28.8607C17.9405 28.8607 18.1043 28.8995 18.2492 28.9773C18.3941 29.055 18.5066 29.1628 18.5868 29.3005C18.6693 29.4383 18.7105 29.5949 18.7105 29.7704C18.7105 29.9459 18.6693 30.1037 18.5868 30.2436C18.5066 30.3814 18.3941 30.4891 18.2492 30.5669C18.1043 30.6446 17.9405 30.6835 17.7578 30.6835ZM17.7578 30.3269C17.9116 30.3269 18.0386 30.2758 18.1389 30.1736C18.2392 30.0714 18.2893 29.937 18.2893 29.7704C18.2893 29.6038 18.2392 29.4694 18.1389 29.3672C18.0386 29.265 17.9116 29.2139 17.7578 29.2139C17.604 29.2139 17.477 29.265 17.3767 29.3672C17.2787 29.4694 17.2296 29.6038 17.2296 29.7704C17.2296 29.937 17.2787 30.0714 17.3767 30.1736C17.477 30.2758 17.604 30.3269 17.7578 30.3269Z" fill="#002FA8"/>
<path d="M20.9052 28.8806V30.6602H20.5074V30.4336C20.4405 30.5135 20.357 30.5758 20.2567 30.6202C20.1564 30.6624 20.0483 30.6835 19.9324 30.6835C19.694 30.6835 19.5057 30.618 19.3675 30.4869C19.2315 30.3536 19.1636 30.157 19.1636 29.897V28.8806H19.5814V29.8404C19.5814 30.0003 19.6171 30.1203 19.6884 30.2003C19.7619 30.2781 19.8656 30.3169 19.9993 30.3169C20.1486 30.3169 20.2667 30.2714 20.3536 30.1803C20.4428 30.087 20.4873 29.9537 20.4873 29.7804V28.8806H20.9052Z" fill="#002FA8"/>
<path d="M23.2675 28.1875V30.6602H22.8663V30.4302C22.7973 30.5147 22.7115 30.578 22.6089 30.6202C22.5087 30.6624 22.3972 30.6835 22.2747 30.6835C22.1031 30.6835 21.9482 30.6457 21.81 30.5702C21.6741 30.4947 21.5671 30.388 21.4891 30.2503C21.4111 30.1103 21.3721 29.9504 21.3721 29.7704C21.3721 29.5905 21.4111 29.4316 21.4891 29.2939C21.5671 29.1561 21.6741 29.0495 21.81 28.974C21.9482 28.8984 22.1031 28.8607 22.2747 28.8607C22.3928 28.8607 22.5009 28.8806 22.5989 28.9206C22.697 28.9606 22.7805 29.0206 22.8496 29.1006V28.1875H23.2675ZM22.3248 30.3269C22.4251 30.3269 22.5153 30.3047 22.5956 30.2603C22.6758 30.2136 22.7393 30.1481 22.7861 30.0637C22.8329 29.9792 22.8563 29.8815 22.8563 29.7704C22.8563 29.6593 22.8329 29.5616 22.7861 29.4772C22.7393 29.3927 22.6758 29.3283 22.5956 29.2839C22.5153 29.2372 22.4251 29.2139 22.3248 29.2139C22.2245 29.2139 22.1343 29.2372 22.054 29.2839C21.9738 29.3283 21.9103 29.3927 21.8635 29.4772C21.8167 29.5616 21.7933 29.6593 21.7933 29.7704C21.7933 29.8815 21.8167 29.9792 21.8635 30.0637C21.9103 30.1481 21.9738 30.2136 22.054 30.2603C22.1343 30.3047 22.2245 30.3269 22.3248 30.3269Z" fill="#002FA8"/>
<path d="M15.2637 35.1034L15.2604 33.5572L14.4915 34.8368H14.2976L13.5288 33.5772V35.1034H13.1143V32.7707H13.4719L14.4013 34.317L15.3139 32.7707H15.6715L15.6749 35.1034H15.2637Z" fill="#002FA8"/>
<path d="M18.0118 34.2237C18.0118 34.2525 18.0096 34.2936 18.0051 34.347H16.6045C16.629 34.478 16.6925 34.5825 16.795 34.6602C16.8997 34.7358 17.029 34.7735 17.1828 34.7735C17.3789 34.7735 17.5405 34.7091 17.6675 34.5802L17.8915 34.8368C17.8112 34.9324 17.7098 35.0046 17.5873 35.0534C17.4647 35.1023 17.3265 35.1268 17.1727 35.1268C16.9766 35.1268 16.8039 35.0879 16.6546 35.0101C16.5053 34.9324 16.3894 34.8246 16.3069 34.6869C16.2267 34.5469 16.1866 34.3892 16.1866 34.2137C16.1866 34.0404 16.2256 33.8849 16.3036 33.7471C16.3838 33.6072 16.4941 33.4983 16.6345 33.4205C16.7749 33.3428 16.9332 33.3039 17.1092 33.3039C17.2831 33.3039 17.4379 33.3428 17.5739 33.4205C17.7121 33.4961 17.819 33.6038 17.8948 33.7438C17.9728 33.8815 18.0118 34.0415 18.0118 34.2237ZM17.1092 33.6372C16.9755 33.6372 16.8619 33.6771 16.7683 33.7571C16.6769 33.8349 16.6212 33.9393 16.6011 34.0704H17.614C17.5962 33.9415 17.5416 33.8371 17.4502 33.7571C17.3588 33.6771 17.2452 33.6372 17.1092 33.6372Z" fill="#002FA8"/>
<path d="M20.7331 33.3039C20.9582 33.3039 21.1365 33.3694 21.268 33.5005C21.3995 33.6294 21.4652 33.8238 21.4652 34.0837V35.1034H21.0474V34.137C21.0474 33.9815 21.0128 33.8649 20.9437 33.7871C20.8746 33.7071 20.7755 33.6671 20.6462 33.6671C20.5058 33.6671 20.3933 33.7138 20.3086 33.8071C20.2239 33.8982 20.1816 34.0293 20.1816 34.2003V35.1034H19.7637V34.137C19.7637 33.9815 19.7292 33.8649 19.6601 33.7871C19.591 33.7071 19.4918 33.6671 19.3626 33.6671C19.2199 33.6671 19.1063 33.7127 19.0216 33.8038C18.9391 33.8949 18.8979 34.0271 18.8979 34.2003V35.1034H18.48V33.3239H18.8778V33.5505C18.9447 33.4705 19.0283 33.4094 19.1286 33.3672C19.2288 33.325 19.3403 33.3039 19.4628 33.3039C19.5966 33.3039 19.7147 33.3295 19.8172 33.3806C19.9219 33.4294 20.0044 33.5027 20.0646 33.6005C20.1381 33.5072 20.2328 33.435 20.3487 33.3839C20.4646 33.3306 20.5927 33.3039 20.7331 33.3039Z" fill="#002FA8"/>
<path d="M23.0555 33.3039C23.2294 33.3039 23.3842 33.3417 23.5202 33.4172C23.6584 33.4928 23.7664 33.5994 23.8444 33.7371C23.9224 33.8749 23.9614 34.0337 23.9614 34.2137C23.9614 34.3936 23.9224 34.5536 23.8444 34.6935C23.7664 34.8313 23.6584 34.9379 23.5202 35.0135C23.3842 35.089 23.2294 35.1268 23.0555 35.1268C22.933 35.1268 22.8204 35.1057 22.7179 35.0634C22.6176 35.0212 22.5329 34.9579 22.4638 34.8735V35.1034H22.066V32.6308H22.4839V33.5405C22.5552 33.4628 22.6388 33.4039 22.7346 33.3639C22.8327 33.3239 22.9396 33.3039 23.0555 33.3039ZM23.0087 34.7702C23.1625 34.7702 23.2884 34.7191 23.3865 34.6169C23.4868 34.5147 23.5369 34.3803 23.5369 34.2137C23.5369 34.047 23.4868 33.9126 23.3865 33.8104C23.2884 33.7082 23.1625 33.6572 23.0087 33.6572C22.9084 33.6572 22.8182 33.6805 22.738 33.7271C22.6577 33.7716 22.5942 33.836 22.5474 33.9204C22.5006 34.0048 22.4772 34.1026 22.4772 34.2137C22.4772 34.3248 22.5006 34.4225 22.5474 34.5069C22.5942 34.5913 22.6577 34.6569 22.738 34.7035C22.8182 34.748 22.9084 34.7702 23.0087 34.7702Z" fill="#002FA8"/>
<path d="M26.1027 34.2237C26.1027 34.2525 26.1005 34.2936 26.096 34.347H24.6954C24.7199 34.478 24.7834 34.5825 24.8859 34.6602C24.9906 34.7358 25.1199 34.7735 25.2737 34.7735C25.4698 34.7735 25.6314 34.7091 25.7584 34.5802L25.9824 34.8368C25.9021 34.9324 25.8007 35.0046 25.6782 35.0534C25.5556 35.1023 25.4174 35.1268 25.2636 35.1268C25.0675 35.1268 24.8948 35.0879 24.7455 35.0101C24.5962 34.9324 24.4803 34.8246 24.3978 34.6869C24.3176 34.5469 24.2775 34.3892 24.2775 34.2137C24.2775 34.0404 24.3165 33.8849 24.3945 33.7471C24.4747 33.6072 24.585 33.4983 24.7254 33.4205C24.8658 33.3428 25.0241 33.3039 25.2001 33.3039C25.374 33.3039 25.5288 33.3428 25.6648 33.4205C25.803 33.4961 25.9099 33.6038 25.9857 33.7438C26.0637 33.8815 26.1027 34.0415 26.1027 34.2237ZM25.2001 33.6372C25.0664 33.6372 24.9528 33.6771 24.8592 33.7571C24.7678 33.8349 24.7121 33.9393 24.692 34.0704H25.7049C25.6871 33.9415 25.6325 33.8371 25.5411 33.7571C25.4497 33.6771 25.3361 33.6372 25.2001 33.6372Z" fill="#002FA8"/>
<path d="M26.9687 33.5838C27.0891 33.3972 27.3008 33.3039 27.6039 33.3039V33.7005C27.5682 33.6938 27.5359 33.6905 27.5069 33.6905C27.3442 33.6905 27.2172 33.7382 27.1258 33.8338C27.0345 33.9271 26.9888 34.0626 26.9888 34.2403V35.1034H26.5709V33.3239H26.9687V33.5838Z" fill="#002FA8"/>
<path d="M29.166 33.8571C29.0902 33.8571 29.0256 33.8315 28.9721 33.7805C28.9186 33.7271 28.8918 33.6605 28.8918 33.5805C28.8918 33.4983 28.9175 33.4317 28.9687 33.3806C29.0222 33.3295 29.088 33.3039 29.166 33.3039C29.244 33.3039 29.3086 33.3295 29.3598 33.3806C29.4133 33.4317 29.4401 33.4983 29.4401 33.5805C29.4401 33.6605 29.4133 33.7271 29.3598 33.7805C29.3064 33.8315 29.2417 33.8571 29.166 33.8571ZM29.166 35.1268C29.0902 35.1268 29.0256 35.1012 28.9721 35.0501C28.9186 34.9968 28.8918 34.9301 28.8918 34.8502C28.8918 34.768 28.9175 34.7013 28.9687 34.6502C29.0222 34.5991 29.088 34.5736 29.166 34.5736C29.244 34.5736 29.3086 34.5991 29.3598 34.6502C29.4133 34.7013 29.4401 34.768 29.4401 34.8502C29.4401 34.9301 29.4133 34.9968 29.3598 35.0501C29.3064 35.1012 29.2417 35.1268 29.166 35.1268Z" fill="#002FA8"/>
<path d="M5 7.33244C5 5.49199 6.49665 4 8.34286 4L79.6571 4C81.5034 4 83 5.49199 83 7.33244V19.5514H5V7.33244Z" fill="#FEC72B"/>
<path d="M47.9862 13.1304L47.9663 13.1098L47.4512 12.5987L47.1802 12.3332L47.4512 12.0647L47.9655 11.5536L47.9793 11.5399C48.195 11.3211 48.3148 11.0263 48.3123 10.72C48.3137 10.4129 48.1926 10.1178 47.9755 9.89925L47.9694 9.89317C47.7503 9.67623 47.4535 9.5545 47.1442 9.55469C46.8613 9.55455 46.588 9.65644 46.375 9.84144C46.3343 9.87652 46.2962 9.91439 46.2609 9.95478L45.7971 10.4157L45.5261 10.685L45.0761 11.1322L44.936 11.2714L44.4607 11.7438L43.8728 12.3332L44.4668 12.9242L44.9306 13.3844L45.0791 13.532L45.5269 13.9777L45.7979 14.2462L46.3153 14.7604C46.424 14.8709 46.5539 14.9587 46.6974 15.0185C46.8408 15.0783 46.9948 15.109 47.1504 15.1088C47.4435 15.1098 47.7263 15.0012 47.9426 14.8045L48.013 14.7345C48.2108 14.5195 48.3201 14.2386 48.3192 13.9473C48.3195 13.6434 48.2 13.3515 47.9862 13.1342" fill="#002FA8"/>
<path d="M45.0659 14.058L43.7846 12.7847L43.5994 12.5999L43.3261 12.3329L43.5971 12.0644L43.7816 11.8811L44.9197 10.7501L45.069 10.5979L45.2535 10.4154L44.7422 9.90729L44.7223 9.88751C44.5036 9.6751 44.2098 9.55632 43.904 9.55664C43.5945 9.55626 43.2974 9.678 43.0781 9.89512L43.0735 9.89968C42.855 10.1175 42.7324 10.4128 42.7329 10.7204C42.7329 10.7295 42.7329 10.7379 42.7329 10.747V14.0352C42.7329 14.0436 42.7329 14.0512 42.7329 14.0588C42.7587 14.31 42.8662 14.546 43.0391 14.7312L43.1095 14.8011C43.3258 14.9978 43.6086 15.1064 43.9017 15.1054C44.209 15.1056 44.504 14.9857 44.723 14.7715L44.7368 14.757L45.255 14.2428L45.0659 14.058Z" fill="#002FA8"/>
<path d="M22.9644 14.3244L21.8729 12.7743L21.3884 13.3508V14.3244H20.6V10.4141H21.3884V12.2609L22.8795 10.4141H23.8324L22.3896 12.1924L23.9335 14.3244H22.9644Z" fill="#002FA8"/>
<path d="M26.0269 13.8104C25.8362 13.6247 25.6858 13.4022 25.585 13.1565C25.4842 12.9108 25.435 12.6472 25.4406 12.382C25.4354 12.1138 25.4852 11.8474 25.5869 11.5989C25.6887 11.3505 25.8402 11.1252 26.0323 10.9368C26.2218 10.744 26.4491 10.5919 26.7002 10.49C26.9513 10.3881 27.2208 10.3385 27.4919 10.3443C27.7623 10.3381 28.0311 10.3876 28.2814 10.4895C28.5317 10.5915 28.758 10.7438 28.9462 10.9368C29.1392 11.1226 29.2917 11.3458 29.3942 11.5925C29.4968 11.8393 29.5473 12.1044 29.5425 12.3713C29.5477 12.6374 29.4974 12.9017 29.3947 13.1475C29.2921 13.3934 29.1394 13.6154 28.9462 13.7998C28.7562 13.9916 28.5285 14.1427 28.2773 14.2436C28.026 14.3444 27.7567 14.393 27.4858 14.3862C26.9056 14.3862 26.4142 14.1961 26.0269 13.8097V13.8104ZM28.3645 11.4761C28.2517 11.3598 28.116 11.2678 27.9659 11.2057C27.8158 11.1437 27.6545 11.113 27.4919 11.1155C27.3293 11.1128 27.1679 11.1433 27.0176 11.2052C26.8674 11.2671 26.7316 11.3591 26.6186 11.4753C26.5011 11.5925 26.4088 11.7322 26.3475 11.886C26.2862 12.0398 26.257 12.2044 26.2619 12.3698C26.2573 12.5339 26.2861 12.6972 26.3465 12.8499C26.4068 13.0027 26.4975 13.1418 26.6132 13.259C26.7274 13.3749 26.8643 13.4663 27.0154 13.5275C27.1666 13.5887 27.3287 13.6185 27.4919 13.6149C27.655 13.6187 27.8171 13.5891 27.9682 13.5282C28.1194 13.4672 28.2563 13.3761 28.3706 13.2605C28.4883 13.1448 28.5804 13.0059 28.6409 12.8528C28.7014 12.6997 28.729 12.5357 28.722 12.3713C28.7273 12.2059 28.6984 12.0412 28.6371 11.8873C28.5757 11.7334 28.4832 11.5937 28.3653 11.4768" fill="#002FA8"/>
<path d="M34.1477 14.3244L33.0554 12.7743L32.5709 13.3508V14.3244H31.7833V10.4141H32.5709V12.2609L34.0619 10.4141H35.0157L33.5721 12.1924L35.1167 14.3244H34.1477Z" fill="#002FA8"/>
<path d="M37.2126 13.8104C37.0221 13.6246 36.872 13.402 36.7713 13.1563C36.6706 12.9107 36.6215 12.6472 36.627 12.382C36.6221 12.1139 36.6719 11.8476 36.7735 11.5992C36.8751 11.3508 37.0263 11.1255 37.2179 10.9368C37.4075 10.7441 37.6349 10.5921 37.886 10.4902C38.137 10.3883 38.4064 10.3386 38.6776 10.3443C38.948 10.3381 39.2168 10.3876 39.467 10.4895C39.7173 10.5915 39.9437 10.7438 40.1319 10.9368C40.3249 11.1226 40.4773 11.3458 40.5799 11.5925C40.6825 11.8393 40.7329 12.1044 40.7282 12.3713C40.7333 12.6374 40.683 12.9017 40.5804 13.1475C40.4778 13.3934 40.3251 13.6154 40.1319 13.7998C39.9413 13.9922 39.7129 14.1436 39.4608 14.2445C39.2088 14.3454 38.9385 14.3936 38.6669 14.3862C38.0859 14.3862 37.5953 14.1961 37.2072 13.8097L37.2126 13.8104ZM39.5456 11.4761C39.4328 11.3599 39.2973 11.268 39.1473 11.206C38.9973 11.1439 38.8362 11.1132 38.6738 11.1155C38.5111 11.1127 38.3497 11.1432 38.1994 11.2051C38.0492 11.267 37.9133 11.359 37.8004 11.4753C37.6824 11.5925 37.5898 11.7325 37.5282 11.8866C37.4666 12.0406 37.4373 12.2056 37.4422 12.3713C37.4376 12.5354 37.4664 12.6987 37.5268 12.8514C37.5871 13.0042 37.6779 13.1433 37.7935 13.2605C37.9078 13.3762 38.0447 13.4673 38.1959 13.5283C38.347 13.5893 38.5092 13.6188 38.6722 13.6149C38.8353 13.6186 38.9974 13.589 39.1485 13.5281C39.2996 13.4671 39.4366 13.376 39.5509 13.2605C39.6686 13.1448 39.7607 13.0059 39.8212 12.8528C39.8817 12.6997 39.9093 12.5357 39.9023 12.3713C39.9076 12.2059 39.8787 12.0412 39.8174 11.8873C39.756 11.7334 39.6635 11.5937 39.5456 11.4768" fill="#002FA8"/>
<path d="M50.3946 12.3748C50.3946 11.2795 51.0835 10.3379 52.3992 10.3379C52.896 10.3379 53.2902 10.4855 53.7074 10.8429C53.7451 10.8778 53.7755 10.9197 53.7968 10.9663C53.8182 11.0129 53.8299 11.0632 53.8315 11.1144C53.8331 11.1656 53.8244 11.2165 53.806 11.2643C53.7875 11.3121 53.7598 11.3558 53.7242 11.3929C53.651 11.4572 53.5559 11.4913 53.4583 11.4882C53.3607 11.4851 53.268 11.445 53.1991 11.3761C52.9649 11.132 52.7245 11.0643 52.3992 11.0643C51.5198 11.0643 51.098 11.6827 51.098 12.3748C51.098 13.0792 51.5144 13.7257 52.3992 13.7257C52.7304 13.7189 53.047 13.5895 53.2871 13.3629C53.3666 13.3047 53.4655 13.2793 53.5634 13.2919C53.6612 13.3046 53.7503 13.3542 53.8122 13.4306C53.9041 13.5553 53.9492 13.7653 53.7494 13.963C53.3499 14.3319 52.87 14.4057 52.3962 14.4057C51.0169 14.4072 50.3946 13.4739 50.3946 12.3748Z" fill="#002FA8"/>
<path d="M55.2088 10.7824C55.2106 10.6891 55.2495 10.6004 55.3168 10.5354C55.3842 10.4704 55.4747 10.4345 55.5686 10.4356C55.6591 10.4383 55.745 10.4762 55.8079 10.5409C55.8708 10.6057 55.9058 10.6924 55.9054 10.7824V13.6279H57.4592C58.0187 13.6279 58.0302 14.371 57.4592 14.371H55.5686C55.5218 14.373 55.4751 14.3655 55.4313 14.3489C55.3875 14.3324 55.3476 14.3071 55.3139 14.2748C55.2802 14.2424 55.2536 14.2035 55.2355 14.1606C55.2174 14.1176 55.2084 14.0715 55.2088 14.0249V10.7824Z" fill="#002FA8"/>
<path d="M61.5537 10.8137C61.5537 10.3086 62.3023 10.2691 62.3023 10.8137V12.8674C62.3023 14.9903 58.8578 14.9903 58.8578 12.8674V10.8137C58.8578 10.3033 59.6064 10.2812 59.6064 10.8137V12.8674C59.6064 13.9855 61.5537 14.0539 61.5537 12.8674V10.8137Z" fill="#002FA8"/>
<path d="M63.93 14.3687C63.8834 14.3699 63.8371 14.3616 63.7939 14.3443C63.7508 14.327 63.7116 14.301 63.6789 14.2681C63.6462 14.2352 63.6206 14.1959 63.6038 14.1528C63.5869 14.1097 63.5791 14.0635 63.5809 14.0173V10.7938C63.5786 10.7474 63.5859 10.701 63.6026 10.6575C63.6192 10.6141 63.6447 10.5746 63.6776 10.5415C63.7104 10.5084 63.7498 10.4824 63.7932 10.4652C63.8367 10.448 63.8832 10.44 63.93 10.4416H65.5374C66.286 10.4416 66.6916 10.9467 66.6916 11.5255C66.6967 11.6605 66.671 11.7949 66.6165 11.9187C66.5621 12.0425 66.4802 12.1525 66.377 12.2405C66.8286 12.417 67.0284 12.763 67.0284 13.1829C67.0284 13.8355 66.5829 14.3687 65.7272 14.3687H63.93ZM65.5374 11.1338H64.3295V11.9796H65.5335C65.7792 11.9796 65.9339 11.8275 65.9339 11.5232C65.9319 11.4191 65.8888 11.32 65.8139 11.2471C65.739 11.1743 65.6383 11.1336 65.5335 11.1338H65.5374ZM64.3326 13.6765H65.7264C66.3885 13.6765 66.3885 12.6718 65.7264 12.6718H64.3295L64.3326 13.6765Z" fill="#002FA8"/>
<path d="M11.3143 25.7258L11.314 25.7409L11.3149 26.1261L11.3167 26.3274L11.1136 26.3268L10.7275 26.3262L10.7171 26.3262C10.5535 26.3276 10.3974 26.3936 10.2828 26.5097C10.1665 26.6246 10.1007 26.7809 10.0999 26.9444L10.0999 26.949C10.1005 27.1126 10.1661 27.2696 10.2824 27.3854C10.3887 27.4915 10.5299 27.5556 10.6797 27.5659C10.7082 27.5679 10.7369 27.568 10.7654 27.566L11.1135 27.5666L11.3169 27.5669L11.6548 27.5674L11.7599 27.5676L12.1167 27.5682L12.56 27.5668L12.5595 27.1221L12.5587 26.7753L12.5585 26.6642L12.5583 26.3288L12.5577 26.1264L12.557 25.7392C12.5578 25.6569 12.5421 25.5752 12.5107 25.499C12.4794 25.4227 12.4331 25.3535 12.3745 25.2953C12.2647 25.185 12.1174 25.1199 11.962 25.1128L11.9091 25.1127C11.7537 25.1194 11.6067 25.1841 11.4972 25.2939C11.3824 25.408 11.3173 25.5625 11.3157 25.7243" fill="#FEC72B"/>
<path d="M5 43.9883H83V47.3207C83 49.1612 81.5034 50.6532 79.6571 50.6532H8.34286C6.49665 50.6532 5 49.1612 5 47.3207V43.9883Z" fill="#FEC72B"/>
<path d="M27.3271 48.4541C27.2068 48.4541 27.0902 48.4371 26.9772 48.403C26.8658 48.3689 26.7774 48.3238 26.712 48.2675L26.8123 48.0431C26.8762 48.0935 26.9542 48.1349 27.0463 48.1675C27.1399 48.1986 27.2335 48.2142 27.3271 48.2142C27.443 48.2142 27.5292 48.1957 27.5856 48.1586C27.6436 48.1216 27.6726 48.0727 27.6726 48.012C27.6726 47.9676 27.6562 47.9313 27.6235 47.9031C27.5923 47.8735 27.5522 47.8506 27.5032 47.8343C27.4542 47.818 27.3873 47.7995 27.3026 47.7787C27.1838 47.7506 27.0872 47.7225 27.0129 47.6943C26.9401 47.6662 26.877 47.6225 26.8235 47.5632C26.7715 47.5025 26.7455 47.4211 26.7455 47.3189C26.7455 47.233 26.7685 47.1552 26.8146 47.0856C26.8621 47.0145 26.9327 46.9582 27.0263 46.9167C27.1214 46.8753 27.2372 46.8545 27.3739 46.8545C27.469 46.8545 27.5626 46.8664 27.6547 46.8901C27.7468 46.9138 27.8263 46.9478 27.8932 46.9923L27.8018 47.2167C27.7335 47.1767 27.6622 47.1463 27.5879 47.1256C27.5136 47.1048 27.4415 47.0945 27.3717 47.0945C27.2573 47.0945 27.1719 47.1137 27.1154 47.1522C27.0604 47.1907 27.033 47.2418 27.033 47.3055C27.033 47.35 27.0486 47.3862 27.0798 47.4144C27.1124 47.4425 27.1533 47.4647 27.2023 47.481C27.2514 47.4973 27.3182 47.5158 27.4029 47.5366C27.5188 47.5632 27.6139 47.5914 27.6882 47.621C27.7624 47.6491 27.8256 47.6928 27.8776 47.7521C27.9311 47.8113 27.9578 47.8913 27.9578 47.992C27.9578 48.0779 27.934 48.1557 27.8865 48.2253C27.8404 48.2949 27.7699 48.3504 27.6748 48.3919C27.5797 48.4334 27.4638 48.4541 27.3271 48.4541Z" fill="#002FA8"/>
<path d="M29.3371 47.8454C29.3371 47.8646 29.3356 47.892 29.3326 47.9276H28.3989C28.4152 48.015 28.4575 48.0846 28.5259 48.1364C28.5957 48.1868 28.6819 48.2119 28.7844 48.2119C28.9151 48.2119 29.0229 48.169 29.1075 48.0831L29.2569 48.2542C29.2034 48.3178 29.1358 48.366 29.0541 48.3986C28.9723 48.4311 28.8802 48.4474 28.7777 48.4474C28.647 48.4474 28.5318 48.4215 28.4323 48.3697C28.3327 48.3178 28.2555 48.246 28.2005 48.1542C28.147 48.0609 28.1203 47.9557 28.1203 47.8387C28.1203 47.7232 28.1463 47.6195 28.1983 47.5277C28.2518 47.4344 28.3253 47.3618 28.4189 47.31C28.5125 47.2581 28.618 47.2322 28.7354 47.2322C28.8513 47.2322 28.9545 47.2581 29.0451 47.31C29.1373 47.3603 29.2086 47.4322 29.2591 47.5255C29.3111 47.6173 29.3371 47.7239 29.3371 47.8454ZM28.7354 47.4544C28.6462 47.4544 28.5705 47.481 28.5081 47.5344C28.4471 47.5862 28.41 47.6558 28.3966 47.7432H29.0719C29.06 47.6573 29.0236 47.5877 28.9627 47.5344C28.9018 47.481 28.826 47.4544 28.7354 47.4544Z" fill="#002FA8"/>
<path d="M29.8699 47.4188C29.9501 47.2944 30.0912 47.2322 30.2933 47.2322V47.4966C30.2695 47.4921 30.248 47.4899 30.2287 47.4899C30.1202 47.4899 30.0355 47.5218 29.9746 47.5855C29.9137 47.6477 29.8832 47.738 29.8832 47.8565V48.4319H29.6047V47.2455H29.8699V47.4188Z" fill="#002FA8"/>
<path d="M30.5296 47.2455H30.8082V48.4319H30.5296V47.2455ZM30.67 47.05C30.6195 47.05 30.5772 47.0345 30.543 47.0034C30.5088 46.9708 30.4917 46.9308 30.4917 46.8834C30.4917 46.836 30.5088 46.7968 30.543 46.7657C30.5772 46.7331 30.6195 46.7168 30.67 46.7168C30.7205 46.7168 30.7629 46.7323 30.797 46.7635C30.8312 46.7931 30.8483 46.8308 30.8483 46.8768C30.8483 46.9256 30.8312 46.9671 30.797 47.0012C30.7644 47.0337 30.722 47.05 30.67 47.05Z" fill="#002FA8"/>
<path d="M31.6284 47.2322C31.8038 47.2322 31.9375 47.2744 32.0296 47.3588C32.1232 47.4418 32.17 47.5677 32.17 47.7365V48.4319H31.907V48.2875C31.8728 48.3393 31.8238 48.3793 31.7599 48.4075C31.6975 48.4341 31.6218 48.4474 31.5326 48.4474C31.4435 48.4474 31.3655 48.4326 31.2986 48.403C31.2318 48.3719 31.1798 48.3297 31.1426 48.2764C31.107 48.2216 31.0891 48.1601 31.0891 48.092C31.0891 47.9853 31.1285 47.9002 31.2072 47.8365C31.2875 47.7713 31.413 47.7387 31.5839 47.7387H31.8914V47.721C31.8914 47.638 31.8662 47.5743 31.8156 47.5299C31.7666 47.4855 31.6931 47.4633 31.595 47.4633C31.5282 47.4633 31.462 47.4736 31.3967 47.4944C31.3328 47.5151 31.2786 47.544 31.234 47.581L31.1248 47.3788C31.1872 47.3314 31.2622 47.2952 31.3499 47.27C31.4375 47.2448 31.5304 47.2322 31.6284 47.2322ZM31.5906 48.2453C31.6604 48.2453 31.722 48.2297 31.7755 48.1986C31.8305 48.166 31.8691 48.1201 31.8914 48.0609V47.9231H31.6039C31.4435 47.9231 31.3632 47.9757 31.3632 48.0809C31.3632 48.1312 31.3833 48.1712 31.4234 48.2008C31.4635 48.2305 31.5192 48.2453 31.5906 48.2453Z" fill="#002FA8"/>
<path d="M32.5275 46.7834H32.8061V48.4319H32.5275V46.7834Z" fill="#002FA8"/>
<path d="M35.2005 46.8768V48.4319H34.9621L34.1018 47.3788V48.4319H33.8143V46.8768H34.0528L34.913 47.9298V46.8768H35.2005Z" fill="#002FA8"/>
<path d="M36.744 47.2455V48.4319H36.4788V48.2808C36.4342 48.3341 36.3785 48.3756 36.3116 48.4052C36.2448 48.4334 36.1727 48.4474 36.0954 48.4474C35.9365 48.4474 35.8109 48.4037 35.7188 48.3164C35.6282 48.2275 35.5829 48.0964 35.5829 47.9231V47.2455H35.8614V47.8854C35.8614 47.992 35.8852 48.072 35.9328 48.1253C35.9818 48.1771 36.0509 48.2031 36.14 48.2031C36.2396 48.2031 36.3183 48.1727 36.3762 48.112C36.4357 48.0498 36.4654 47.9609 36.4654 47.8454V47.2455H36.744Z" fill="#002FA8"/>
<path d="M38.6107 47.2322C38.7608 47.2322 38.8797 47.2759 38.9673 47.3633C39.055 47.4492 39.0988 47.5788 39.0988 47.7521V48.4319H38.8202V47.7876C38.8202 47.6839 38.7972 47.6062 38.7511 47.5543C38.7051 47.501 38.639 47.4744 38.5528 47.4744C38.4592 47.4744 38.3842 47.5055 38.3277 47.5677C38.2713 47.6284 38.243 47.7158 38.243 47.8298V48.4319H37.9645V47.7876C37.9645 47.6839 37.9414 47.6062 37.8954 47.5543C37.8493 47.501 37.7832 47.4744 37.697 47.4744C37.6019 47.4744 37.5262 47.5047 37.4697 47.5655C37.4147 47.6262 37.3873 47.7143 37.3873 47.8298V48.4319H37.1087V47.2455H37.3739V47.3966C37.4185 47.3433 37.4742 47.3026 37.541 47.2744C37.6079 47.2463 37.6822 47.2322 37.7639 47.2322C37.853 47.2322 37.9318 47.2492 38.0001 47.2833C38.0699 47.3159 38.1249 47.3648 38.165 47.4299C38.2141 47.3677 38.2772 47.3196 38.3545 47.2855C38.4317 47.25 38.5171 47.2322 38.6107 47.2322Z" fill="#002FA8"/>
<path d="M40.1144 47.2322C40.2303 47.2322 40.3336 47.2574 40.4242 47.3077C40.5163 47.3581 40.5884 47.4292 40.6404 47.521C40.6924 47.6129 40.7184 47.7187 40.7184 47.8387C40.7184 47.9587 40.6924 48.0653 40.6404 48.1586C40.5884 48.2505 40.5163 48.3215 40.4242 48.3719C40.3336 48.4223 40.2303 48.4474 40.1144 48.4474C40.0327 48.4474 39.9577 48.4334 39.8894 48.4052C39.8225 48.3771 39.766 48.3349 39.72 48.2786V48.4319H39.4548V46.7834H39.7334V47.3899C39.7809 47.3381 39.8366 47.2989 39.9005 47.2722C39.9659 47.2455 40.0372 47.2322 40.1144 47.2322ZM40.0832 48.2097C40.1858 48.2097 40.2697 48.1757 40.3351 48.1075C40.4019 48.0394 40.4354 47.9498 40.4354 47.8387C40.4354 47.7276 40.4019 47.638 40.3351 47.5699C40.2697 47.5018 40.1858 47.4677 40.0832 47.4677C40.0164 47.4677 39.9562 47.4833 39.9027 47.5144C39.8492 47.544 39.8069 47.5869 39.7757 47.6432C39.7445 47.6995 39.7289 47.7647 39.7289 47.8387C39.7289 47.9128 39.7445 47.9779 39.7757 48.0342C39.8069 48.0905 39.8492 48.1342 39.9027 48.1653C39.9562 48.1949 40.0164 48.2097 40.0832 48.2097Z" fill="#002FA8"/>
<path d="M42.1013 47.8454C42.1013 47.8646 42.0998 47.892 42.0969 47.9276H41.1631C41.1794 48.015 41.2218 48.0846 41.2901 48.1364C41.3599 48.1868 41.4461 48.2119 41.5486 48.2119C41.6794 48.2119 41.7871 48.169 41.8718 48.0831L42.0211 48.2542C41.9676 48.3178 41.9 48.366 41.8183 48.3986C41.7366 48.4311 41.6445 48.4474 41.5419 48.4474C41.4112 48.4474 41.2961 48.4215 41.1965 48.3697C41.097 48.3178 41.0197 48.246 40.9647 48.1542C40.9113 48.0609 40.8845 47.9557 40.8845 47.8387C40.8845 47.7232 40.9105 47.6195 40.9625 47.5277C41.016 47.4344 41.0895 47.3618 41.1831 47.31C41.2767 47.2581 41.3822 47.2322 41.4996 47.2322C41.6155 47.2322 41.7187 47.2581 41.8094 47.31C41.9015 47.3603 41.9728 47.4322 42.0233 47.5255C42.0753 47.6173 42.1013 47.7239 42.1013 47.8454ZM41.4996 47.4544C41.4105 47.4544 41.3347 47.481 41.2723 47.5344C41.2114 47.5862 41.1742 47.6558 41.1609 47.7432H41.8361C41.8242 47.6573 41.7878 47.5877 41.7269 47.5344C41.666 47.481 41.5902 47.4544 41.4996 47.4544Z" fill="#002FA8"/>
<path d="M42.6341 47.4188C42.7143 47.2944 42.8555 47.2322 43.0575 47.2322V47.4966C43.0338 47.4921 43.0122 47.4899 42.9929 47.4899C42.8844 47.4899 42.7998 47.5218 42.7388 47.5855C42.6779 47.6477 42.6475 47.738 42.6475 47.8565V48.4319H42.3689V47.2455H42.6341V47.4188Z" fill="#002FA8"/>
<path d="M44.0098 47.601C43.9593 47.601 43.9162 47.584 43.8805 47.5499C43.8449 47.5144 43.827 47.4699 43.827 47.4166C43.827 47.3618 43.8441 47.3174 43.8783 47.2833C43.9139 47.2492 43.9578 47.2322 44.0098 47.2322C44.0618 47.2322 44.1049 47.2492 44.139 47.2833C44.1747 47.3174 44.1925 47.3618 44.1925 47.4166C44.1925 47.4699 44.1747 47.5144 44.139 47.5499C44.1034 47.584 44.0603 47.601 44.0098 47.601ZM44.0098 48.4474C43.9593 48.4474 43.9162 48.4304 43.8805 48.3963C43.8449 48.3608 43.827 48.3164 43.827 48.263C43.827 48.2082 43.8441 48.1638 43.8783 48.1297C43.9139 48.0957 43.9578 48.0787 44.0098 48.0787C44.0618 48.0787 44.1049 48.0957 44.139 48.1297C44.1747 48.1638 44.1925 48.2082 44.1925 48.263C44.1925 48.3164 44.1747 48.3608 44.139 48.3963C44.1034 48.4304 44.0603 48.4474 44.0098 48.4474Z" fill="#002FA8"/>
<path d="M45.66 47.5188C45.8042 47.5366 45.9141 47.5855 45.9899 47.6654C46.0656 47.7454 46.1035 47.8454 46.1035 47.9653C46.1035 48.0557 46.0805 48.1379 46.0344 48.2119C45.9884 48.286 45.9186 48.3452 45.825 48.3897C45.7328 48.4326 45.6199 48.4541 45.4862 48.4541C45.3748 48.4541 45.2671 48.4386 45.1631 48.4075C45.0606 48.3749 44.9729 48.3304 44.9001 48.2742L45.0249 48.0498C45.0814 48.0972 45.1497 48.1349 45.2299 48.1631C45.3116 48.1897 45.3956 48.2031 45.4818 48.2031C45.5843 48.2031 45.6645 48.1823 45.7224 48.1409C45.7819 48.0979 45.8116 48.0401 45.8116 47.9676C45.8116 47.895 45.7834 47.8387 45.7269 47.7987C45.6719 47.7573 45.5872 47.7365 45.4728 47.7365H45.3302V47.5388L45.6846 47.1189H44.9759V46.8768H46.0389V47.07L45.66 47.5188Z" fill="#002FA8"/>
<path d="M46.8323 46.8768V48.4319H46.5426V47.1189H46.2128V46.8768H46.8323Z" fill="#002FA8"/>
<path d="M47.8059 47.5188C47.95 47.5366 48.06 47.5855 48.1357 47.6654C48.2115 47.7454 48.2494 47.8454 48.2494 47.9653C48.2494 48.0557 48.2264 48.1379 48.1803 48.2119C48.1343 48.286 48.0644 48.3452 47.9708 48.3897C47.8787 48.4326 47.7658 48.4541 47.6321 48.4541C47.5207 48.4541 47.4129 48.4386 47.3089 48.4075C47.2064 48.3749 47.1188 48.3304 47.046 48.2742L47.1708 48.0498C47.2272 48.0972 47.2956 48.1349 47.3758 48.1631C47.4575 48.1897 47.5415 48.2031 47.6276 48.2031C47.7301 48.2031 47.8104 48.1823 47.8683 48.1409C47.9277 48.0979 47.9575 48.0401 47.9575 47.9676C47.9575 47.895 47.9292 47.8387 47.8728 47.7987C47.8178 47.7573 47.7331 47.7365 47.6187 47.7365H47.4761V47.5388L47.8304 47.1189H47.1217V46.8768H48.1848V47.07L47.8059 47.5188Z" fill="#002FA8"/>
<path d="M48.9648 46.8545C49.1788 46.8545 49.3444 46.9212 49.4618 47.0545C49.5807 47.1878 49.6401 47.3788 49.6401 47.6277C49.6401 47.8024 49.6082 47.952 49.5443 48.0764C49.4804 48.1994 49.3905 48.2934 49.2746 48.3586C49.1602 48.4223 49.0272 48.4541 48.8757 48.4541C48.7955 48.4541 48.7197 48.446 48.6484 48.4297C48.5786 48.4119 48.5176 48.3867 48.4656 48.3541L48.5726 48.1364C48.6499 48.1868 48.7487 48.2119 48.869 48.2119C49.0191 48.2119 49.1364 48.166 49.2211 48.0742C49.3058 47.9824 49.3482 47.8498 49.3482 47.6765V47.6743C49.3021 47.7276 49.2434 47.7684 49.1721 47.7965C49.1008 47.8232 49.0206 47.8365 48.9314 47.8365C48.8289 47.8365 48.7368 47.8172 48.6551 47.7787C48.5734 47.7387 48.5095 47.6825 48.4634 47.6099C48.4174 47.5373 48.3943 47.4536 48.3943 47.3588C48.3943 47.2581 48.4196 47.17 48.4701 47.0945C48.5206 47.0175 48.589 46.9582 48.6751 46.9167C48.7613 46.8753 48.8579 46.8545 48.9648 46.8545ZM48.9871 47.6099C49.0807 47.6099 49.1565 47.5847 49.2144 47.5344C49.2739 47.484 49.3036 47.4203 49.3036 47.3433C49.3036 47.2678 49.2746 47.2056 49.2167 47.1567C49.1602 47.1063 49.0815 47.0811 48.9804 47.0811C48.8898 47.0811 48.8163 47.1056 48.7598 47.1545C48.7034 47.2019 48.6751 47.2655 48.6751 47.3455C48.6751 47.427 48.7034 47.4914 48.7598 47.5388C48.8163 47.5862 48.892 47.6099 48.9871 47.6099Z" fill="#002FA8"/>
<path d="M51.1028 48.4541C50.978 48.4541 50.8665 48.423 50.7685 48.3608C50.6704 48.2971 50.5932 48.2053 50.5367 48.0853C50.4802 47.9639 50.452 47.8202 50.452 47.6543C50.452 47.4884 50.4802 47.3455 50.5367 47.2255C50.5932 47.1041 50.6704 47.0123 50.7685 46.9501C50.8665 46.8864 50.978 46.8545 51.1028 46.8545C51.2276 46.8545 51.339 46.8864 51.437 46.9501C51.5366 47.0123 51.6146 47.1041 51.671 47.2255C51.7275 47.3455 51.7557 47.4884 51.7557 47.6543C51.7557 47.8202 51.7275 47.9639 51.671 48.0853C51.6146 48.2053 51.5366 48.2971 51.437 48.3608C51.339 48.423 51.2276 48.4541 51.1028 48.4541ZM51.1028 48.2031C51.2142 48.2031 51.3018 48.1571 51.3657 48.0653C51.4311 47.9735 51.4638 47.8365 51.4638 47.6543C51.4638 47.4721 51.4311 47.3351 51.3657 47.2433C51.3018 47.1515 51.2142 47.1056 51.1028 47.1056C50.9928 47.1056 50.9052 47.1515 50.8398 47.2433C50.7759 47.3351 50.744 47.4721 50.744 47.6543C50.744 47.8365 50.7759 47.9735 50.8398 48.0653C50.9052 48.1571 50.9928 48.2031 51.1028 48.2031Z" fill="#002FA8"/>
<path d="M52.5939 47.5188C52.738 47.5366 52.8479 47.5855 52.9237 47.6654C52.9995 47.7454 53.0374 47.8454 53.0374 47.9653C53.0374 48.0557 53.0143 48.1379 52.9683 48.2119C52.9222 48.286 52.8524 48.3452 52.7588 48.3897C52.6667 48.4326 52.5537 48.4541 52.42 48.4541C52.3086 48.4541 52.2009 48.4386 52.0969 48.4075C51.9944 48.3749 51.9067 48.3304 51.8339 48.2742L51.9587 48.0498C52.0152 48.0972 52.0835 48.1349 52.1638 48.1631C52.2455 48.1897 52.3294 48.2031 52.4156 48.2031C52.5181 48.2031 52.5983 48.1823 52.6563 48.1409C52.7157 48.0979 52.7454 48.0401 52.7454 47.9676C52.7454 47.895 52.7172 47.8387 52.6607 47.7987C52.6057 47.7573 52.5211 47.7365 52.4067 47.7365H52.264V47.5388L52.6184 47.1189H51.9097V46.8768H52.9727V47.07L52.5939 47.5188Z" fill="#002FA8"/>
<path d="M54.6175 48.0787H54.3411V48.4319H54.0603V48.0787H53.2046V47.8787L53.9734 46.8768H54.2832L53.5589 47.8343H54.0692V47.521H54.3411V47.8343H54.6175V48.0787Z" fill="#002FA8"/>
<path d="M55.8628 48.1875V48.4319H54.7128V48.2386L55.3324 47.6521C55.4022 47.5855 55.449 47.5277 55.4728 47.4788C55.498 47.4285 55.5106 47.3788 55.5106 47.33C55.5106 47.2574 55.4861 47.2019 55.4371 47.1633C55.3881 47.1248 55.316 47.1056 55.2209 47.1056C55.062 47.1056 54.9401 47.1596 54.8554 47.2678L54.6526 47.1122C54.7136 47.0308 54.7953 46.9678 54.8978 46.9234C55.0018 46.8775 55.1177 46.8545 55.2454 46.8545C55.4148 46.8545 55.55 46.8945 55.651 46.9745C55.7521 47.0545 55.8026 47.1633 55.8026 47.3011C55.8026 47.3855 55.7848 47.4647 55.7491 47.5388C55.7134 47.6129 55.6451 47.6973 55.5441 47.7921L55.1273 48.1875H55.8628Z" fill="#002FA8"/>
<path d="M57.1852 46.8768V48.4319H56.8955V47.1189H56.5656V46.8768H57.1852Z" fill="#002FA8"/>
<path d="M58.6245 48.1875V48.4319H57.4746V48.2386L58.0941 47.6521C58.164 47.5855 58.2108 47.5277 58.2345 47.4788C58.2598 47.4285 58.2724 47.3788 58.2724 47.33C58.2724 47.2574 58.2479 47.2019 58.1989 47.1633C58.1498 47.1248 58.0778 47.1056 57.9827 47.1056C57.8237 47.1056 57.7019 47.1596 57.6172 47.2678L57.4144 47.1122C57.4753 47.0308 57.557 46.9678 57.6596 46.9234C57.7636 46.8775 57.8794 46.8545 58.0072 46.8545C58.1766 46.8545 58.3118 46.8945 58.4128 46.9745C58.5138 47.0545 58.5644 47.1633 58.5644 47.3011C58.5644 47.3855 58.5465 47.4647 58.5109 47.5388C58.4752 47.6129 58.4069 47.6973 58.3058 47.7921L57.8891 48.1875H58.6245Z" fill="#002FA8"/>
<path d="M59.3177 46.8545C59.5316 46.8545 59.6973 46.9212 59.8147 47.0545C59.9335 47.1878 59.9929 47.3788 59.9929 47.6277C59.9929 47.8024 59.961 47.952 59.8971 48.0764C59.8332 48.1994 59.7433 48.2934 59.6275 48.3586C59.5131 48.4223 59.3801 48.4541 59.2285 48.4541C59.1483 48.4541 59.0725 48.446 59.0012 48.4297C58.9314 48.4119 58.8705 48.3867 58.8185 48.3541L58.9255 48.1364C59.0027 48.1868 59.1015 48.2119 59.2219 48.2119C59.3719 48.2119 59.4893 48.166 59.574 48.0742C59.6587 47.9824 59.701 47.8498 59.701 47.6765V47.6743C59.6549 47.7276 59.5963 47.7684 59.5249 47.7965C59.4536 47.8232 59.3734 47.8365 59.2843 47.8365C59.1817 47.8365 59.0896 47.8172 59.0079 47.7787C58.9262 47.7387 58.8623 47.6825 58.8163 47.6099C58.7702 47.5373 58.7472 47.4536 58.7472 47.3588C58.7472 47.2581 58.7724 47.17 58.8229 47.0945C58.8735 47.0175 58.9418 46.9582 59.028 46.9167C59.1141 46.8753 59.2107 46.8545 59.3177 46.8545ZM59.34 47.6099C59.4336 47.6099 59.5093 47.5847 59.5673 47.5344C59.6267 47.484 59.6564 47.4203 59.6564 47.3433C59.6564 47.2678 59.6275 47.2056 59.5695 47.1567C59.5131 47.1063 59.4343 47.0811 59.3333 47.0811C59.2427 47.0811 59.1691 47.1056 59.1127 47.1545C59.0562 47.2019 59.028 47.2655 59.028 47.3455C59.028 47.427 59.0562 47.4914 59.1127 47.5388C59.1691 47.5862 59.2449 47.6099 59.34 47.6099Z" fill="#002FA8"/>
<path d="M60.8313 47.5188C60.9754 47.5366 61.0854 47.5855 61.1611 47.6654C61.2369 47.7454 61.2748 47.8454 61.2748 47.9653C61.2748 48.0557 61.2518 48.1379 61.2057 48.2119C61.1597 48.286 61.0898 48.3452 60.9962 48.3897C60.9041 48.4326 60.7912 48.4541 60.6575 48.4541C60.5461 48.4541 60.4383 48.4386 60.3343 48.4075C60.2318 48.3749 60.1442 48.3304 60.0714 48.2742L60.1962 48.0498C60.2526 48.0972 60.321 48.1349 60.4012 48.1631C60.4829 48.1897 60.5669 48.2031 60.653 48.2031C60.7555 48.2031 60.8358 48.1823 60.8937 48.1409C60.9531 48.0979 60.9829 48.0401 60.9829 47.9676C60.9829 47.895 60.9546 47.8387 60.8982 47.7987C60.8432 47.7573 60.7585 47.7365 60.6441 47.7365H60.5015V47.5388L60.8558 47.1189H60.1471V46.8768H61.2102V47.07L60.8313 47.5188Z" fill="#002FA8"/>
<path fill-rule="evenodd" clip-rule="evenodd" d="M71.8572 38.4359H29.5143V38.1582H71.8572V38.4359Z" fill="#002FA8" fill-opacity="0.3"/>
</g>
<defs>
<filter id="filter0_dd_238:4454" x="0" y="0" width="88" height="56.6543" filterUnits="userSpaceOnUse" color-interpolation-filters="sRGB">
<feFlood flood-opacity="0" result="BackgroundImageFix"/>
<feColorMatrix in="SourceAlpha" type="matrix" values="0 0 0 0 0 0 0 0 0 0 0 0 0 0 0 0 0 0 127 0" result="hardAlpha"/>
<feOffset dy="1"/>
<feGaussianBlur stdDeviation="2.5"/>
<feComposite in2="hardAlpha" operator="out"/>
<feColorMatrix type="matrix" values="0 0 0 0 0 0 0 0 0 0 0 0 0 0 0 0 0 0 0.2 0"/>
<feBlend mode="normal" in2="BackgroundImageFix" result="effect1_dropShadow_238:4454"/>
<feColorMatrix in="SourceAlpha" type="matrix" values="0 0 0 0 0 0 0 0 0 0 0 0 0 0 0 0 0 0 127 0" result="hardAlpha"/>
<feOffset/>
<feGaussianBlur stdDeviation="1"/>
<feComposite in2="hardAlpha" operator="out"/>
<feColorMatrix type="matrix" values="0 0 0 0 0 0 0 0 0 0 0 0 0 0 0 0 0 0 0.25 0"/>
<feBlend mode="normal" in2="effect1_dropShadow_238:4454" result="effect2_dropShadow_238:4454"/>
<feBlend mode="normal" in="SourceGraphic" in2="effect2_dropShadow_238:4454" result="shape"/>
</filter>
</defs>
</svg>
