<svg width="64" height="64" viewBox="0 0 64 64" fill="none" xmlns="http://www.w3.org/2000/svg">
<path d="M53.3333 21.3327H45.3333V10.666H8.00001C5.06667 10.666 2.66667 13.066 2.66667 15.9993V45.3327H8.00001C8.00001 49.7593 11.5733 53.3327 16 53.3327C20.4267 53.3327 24 49.7593 24 45.3327H40C40 49.7593 43.5733 53.3327 48 53.3327C52.4267 53.3327 56 49.7593 56 45.3327H61.3333V31.9993L53.3333 21.3327ZM16 49.3327C13.7867 49.3327 12 47.546 12 45.3327C12 43.1193 13.7867 41.3327 16 41.3327C18.2133 41.3327 20 43.1193 20 45.3327C20 47.546 18.2133 49.3327 16 49.3327ZM52 25.3327L57.2267 31.9993H45.3333V25.3327H52ZM48 49.3327C45.7867 49.3327 44 47.546 44 45.3327C44 43.1193 45.7867 41.3327 48 41.3327C50.2133 41.3327 52 43.1193 52 45.3327C52 47.546 50.2133 49.3327 48 49.3327Z" fill="#002FA8"/>
</svg>
