

<svg width="64" height="64" viewBox="0 0 64 64" fill="none" xmlns="http://www.w3.org/2000/svg">
<path d="M53.3334 10.666H10.6667C7.70675 10.666 5.36008 13.0393 5.36008 15.9993L5.33341 47.9993C5.33341 50.9593 7.70675 53.3327 10.6667 53.3327H53.3334C56.2934 53.3327 58.6667 50.9593 58.6667 47.9993V15.9993C58.6667 13.0393 56.2934 10.666 53.3334 10.666Z" fill="#002FA8"/>
<path d="M42.4982 35.4068L42.4136 35.3192L40.2219 33.1377L39.0691 32.0048L40.2219 30.8589L42.4103 28.6775L42.4689 28.619C43.3867 27.6852 43.896 26.4269 43.8855 25.1196C43.8915 23.8091 43.3763 22.5497 42.4527 21.617L42.4266 21.591C41.4944 20.6652 40.232 20.1457 38.9161 20.1465C37.7125 20.1459 36.5495 20.5807 35.6433 21.3703C35.4703 21.52 35.3082 21.6816 35.158 21.854L33.1846 23.8212L32.0318 24.9703L30.1169 26.8791L29.521 27.4731L27.4987 29.489L24.9977 32.0048L27.5248 34.5271L29.4982 36.491L30.13 37.1208L32.035 39.0231L33.1878 40.169L35.3893 42.3634C35.8519 42.8351 36.4046 43.2097 37.0148 43.465C37.625 43.7204 38.2803 43.8513 38.9421 43.8501C40.1893 43.8546 41.3926 43.391 42.3126 42.5517L42.6122 42.253C43.4537 41.3355 43.9186 40.1364 43.9148 38.8932C43.9162 37.5963 43.4077 36.3505 42.4982 35.423" fill="#FEC72B"/>
<path d="M30.0743 39.3691L24.6229 33.935L23.8348 33.1462L22.6722 32.0068L23.825 30.8609L24.6099 30.0786L29.4523 25.2515L30.0873 24.6022L30.8722 23.8232L28.6968 21.6547L28.6121 21.5703C27.6817 20.6638 26.4319 20.1568 25.1309 20.1582C23.8139 20.1566 22.5501 20.6761 21.6171 21.6028L21.5976 21.6222C20.6677 22.552 20.1464 23.812 20.1484 25.1249C20.1484 25.1638 20.1484 25.1995 20.1484 25.2385V39.2718C20.1484 39.3075 20.1484 39.3399 20.1484 39.3724C20.2583 40.4446 20.7156 41.452 21.451 42.242L21.7506 42.5407C22.6707 43.38 23.8739 43.8436 25.1211 43.8392C26.4285 43.8401 27.6837 43.3282 28.6154 42.4141L28.674 42.3524L30.8787 40.158L30.0743 39.3691Z" fill="#FEC72B"/>
</svg>
