<svg width="64" height="64" viewBox="0 0 64 64" fill="none" xmlns="http://www.w3.org/2000/svg">
<path d="M53.3335 10.666H10.6668C7.7335 10.666 5.3335 13.066 5.3335 15.9993V47.9993C5.3335 50.9327 7.7335 53.3327 10.6668 53.3327H53.3335C56.2668 53.3327 58.6668 50.9327 58.6668 47.9993V15.9993C58.6668 13.066 56.2668 10.666 53.3335 10.666ZM20.3735 39.9993H17.3068V27.9993L14.9068 29.7593L13.3602 27.386L18.0535 23.9993H20.3735V39.9993ZM36.0002 39.9993H25.6268V37.2793C28.4802 34.426 30.3468 32.5593 31.3068 31.546C32.3735 30.426 32.7468 29.706 32.7468 28.7193C32.7468 27.6527 31.9202 26.7993 30.5868 26.7993C29.2002 26.7993 28.4535 27.8393 28.1868 28.7193L25.4935 27.5993C25.5202 27.546 25.9735 25.5727 28.1602 24.5327C30.0002 23.6527 32.1068 23.9993 33.3602 24.6127C35.6535 25.786 35.7868 27.9193 35.7868 28.5593C35.7868 30.266 34.9602 31.9193 33.3335 33.5193C32.6668 34.186 31.4135 35.4127 29.6002 37.226L29.6802 37.3593H36.0002V39.9993ZM50.0002 37.7327C49.7868 38.0793 48.5068 39.9993 45.3068 39.9993C45.2002 39.9993 41.0402 40.2127 39.8402 35.9727L42.5868 34.8793C42.6668 35.146 43.0935 37.1727 45.3068 37.1727C46.4002 37.1727 47.6802 36.426 47.6802 35.1193C47.6802 33.6527 46.4002 33.0127 44.9068 33.0127H43.5735V30.346H44.8002C45.6802 30.346 47.1468 29.9727 47.1468 28.426C47.1468 27.386 46.3202 26.6927 45.1468 26.6927C43.8135 26.6927 43.1735 27.546 42.8802 28.3993L40.2402 27.306C40.5335 26.3993 41.8135 23.9993 45.1735 23.9993C48.0802 23.9993 49.2802 25.706 49.4935 25.9993C50.3735 27.3327 50.2402 29.0927 49.5468 30.186C49.1468 30.7727 48.6935 31.1993 48.1602 31.466V31.6527C48.9068 31.946 49.5202 32.3993 49.9735 33.0393C50.9602 34.426 50.8535 36.426 50.0002 37.7327Z" fill="#002FA8"/>
</svg>
