<svg width="64" height="64" viewBox="0 0 64 64" fill="none" xmlns="http://www.w3.org/2000/svg">
<path d="M25.3335 17.334V25.334H17.3335V17.334H25.3335ZM29.3335 13.334H13.3335V29.334H29.3335V13.334ZM25.3335 38.6673V46.6673H17.3335V38.6673H25.3335ZM29.3335 34.6673H13.3335V50.6673H29.3335V34.6673ZM46.6668 17.334V25.334H38.6668V17.334H46.6668ZM50.6668 13.334H34.6668V29.334H50.6668V13.334ZM34.6668 34.6673H38.6668V38.6673H34.6668V34.6673ZM38.6668 38.6673H42.6668V42.6673H38.6668V38.6673ZM42.6668 34.6673H46.6668V38.6673H42.6668V34.6673ZM34.6668 42.6673H38.6668V46.6673H34.6668V42.6673ZM38.6668 46.6673H42.6668V50.6673H38.6668V46.6673ZM42.6668 42.6673H46.6668V46.6673H42.6668V42.6673ZM46.6668 38.6673H50.6668V42.6673H46.6668V38.6673ZM46.6668 46.6673H50.6668V50.6673H46.6668V46.6673ZM58.6668 18.6673H53.3335V10.6673H45.3335V5.33398H58.6668V18.6673ZM58.6668 58.6673V45.334H53.3335V53.334H45.3335V58.6673H58.6668ZM5.3335 58.6673H18.6668V53.334H10.6668V45.334H5.3335V58.6673ZM5.3335 5.33398V18.6673H10.6668V10.6673H18.6668V5.33398H5.3335Z" fill="#002FA8"/>
</svg>
