<svg width="64" height="64" viewBox="0 0 64 64" fill="none" xmlns="http://www.w3.org/2000/svg">
<path d="M18.6667 48.0007C15.7333 48.0007 13.36 50.4007 13.36 53.334C13.36 56.2673 15.7333 58.6673 18.6667 58.6673C21.6 58.6673 24 56.2673 24 53.334C24 50.4007 21.6 48.0007 18.6667 48.0007ZM2.66667 5.33398V10.6673H8L17.6 30.9073L14 37.4407C13.5733 38.1873 13.3333 39.0673 13.3333 40.0007C13.3333 42.934 15.7333 45.334 18.6667 45.334H50.6667V40.0007H19.7867C19.4133 40.0007 19.12 39.7073 19.12 39.334L19.2 39.014L21.6 34.6673H41.4667C43.4667 34.6673 45.2267 33.574 46.1333 31.9207L55.68 14.614C55.8933 14.2407 56 13.7873 56 13.334C56 11.8673 54.8 10.6673 53.3333 10.6673H13.8933L11.3867 5.33398H2.66667ZM45.3333 48.0007C42.4 48.0007 40.0267 50.4007 40.0267 53.334C40.0267 56.2673 42.4 58.6673 45.3333 58.6673C48.2667 58.6673 50.6667 56.2673 50.6667 53.334C50.6667 50.4007 48.2667 48.0007 45.3333 48.0007Z" fill="#002FA8"/>
</svg>
