<svg width="14" height="14" viewBox="0 0 14 14" fill="none" xmlns="http://www.w3.org/2000/svg">
<path d="M0.583496 12.2502H2.91683V5.25016H0.583496V12.2502ZM13.4168 5.8335C13.4168 5.19183 12.8918 4.66683 12.2502 4.66683H8.56933L9.1235 2.001L9.141 1.81433C9.141 1.57516 9.04183 1.3535 8.88433 1.196L8.266 0.583496L4.42766 4.42766C4.21183 4.63766 4.0835 4.92933 4.0835 5.25016V11.0835C4.0835 11.7252 4.6085 12.2502 5.25016 12.2502H10.5002C10.9843 12.2502 11.3985 11.9585 11.5735 11.5385L13.3352 7.426C13.3877 7.29183 13.4168 7.15183 13.4168 7.00016V5.8335Z" fill="#D3D3D3"/>
</svg>
