<svg width="193" height="27" viewBox="0 0 193 27" fill="none" xmlns="http://www.w3.org/2000/svg">
<path d="M182.594 6.77472L182.593 6.88081L182.501 9.57497L182.445 10.9834L183.861 10.9346L186.553 10.8455L186.625 10.8431C187.766 10.8171 188.84 11.2441 189.613 12.0307C190.399 12.8088 190.823 13.8876 190.792 15.031L190.791 15.063C190.751 16.2077 190.259 17.3199 189.422 18.1556C188.658 18.9208 187.66 19.4004 186.613 19.5052C186.413 19.5257 186.214 19.5323 186.016 19.5249L183.588 19.6053L182.17 19.6522L179.814 19.7302L179.081 19.7544L176.593 19.8368L173.503 19.9251L173.604 16.8144L173.686 14.3886L173.712 13.6115L173.788 11.266L173.837 9.84976L173.926 7.14164C173.939 6.56623 174.067 5.99153 174.302 5.45143C174.537 4.91134 174.876 4.41679 175.297 3.99696C176.087 3.20178 177.128 2.71376 178.213 2.62989L178.582 2.61769C179.664 2.63037 180.675 3.05039 181.414 3.79449C182.189 4.56737 182.609 5.6338 182.584 6.76503" fill="#002FA8"/>
<path d="M7.50363 8.833L7.50476 8.91257L7.57314 10.9332L7.61561 11.9895L6.55344 11.9529L4.53437 11.8861L4.48029 11.8843C3.62502 11.8648 2.81926 12.185 2.23931 12.775C1.65005 13.3586 1.33203 14.1677 1.35488 15.0252L1.35568 15.0492C1.38565 15.9078 1.75487 16.7419 2.38235 17.3687C2.9557 17.9426 3.70452 18.3022 4.48973 18.3808C4.63912 18.3963 4.78872 18.4012 4.93741 18.3956L6.75818 18.4559L7.82179 18.4911L9.58848 18.5496L10.1383 18.5678L12.0042 18.6296L14.3218 18.6958L14.2461 16.3628L14.1844 14.5434L14.1651 13.9606L14.1084 12.2014L14.0717 11.1393L14.0045 9.10819C13.9951 8.67663 13.8993 8.24561 13.7227 7.84054C13.5462 7.43547 13.2924 7.06455 12.9765 6.74968C12.3841 6.1533 11.6033 5.78728 10.7892 5.72438L10.5128 5.71523C9.70117 5.72474 8.943 6.03976 8.38855 6.59783C7.80757 7.17749 7.49248 7.97732 7.51089 8.82574" fill="#002FA8"/>
</svg>
